<?xml version="1.0" encoding="UTF-8"?>
<!DOCTYPE svg PUBLIC "-//W3C//DTD SVG 1.1//EN" "http://www.w3.org/Graphics/SVG/1.1/DTD/svg11.dtd">
<svg xmlns="http://www.w3.org/2000/svg" version="1.1" width="536px" height="465px" style="shape-rendering:geometricPrecision; text-rendering:geometricPrecision; image-rendering:optimizeQuality; fill-rule:evenodd; clip-rule:evenodd" xmlns:xlink="http://www.w3.org/1999/xlink">
<g><path style="opacity:0.102" fill="#fefefe" d="M -0.5,-0.5 C 178.167,-0.5 356.833,-0.5 535.5,-0.5C 535.5,154.5 535.5,309.5 535.5,464.5C 356.833,464.5 178.167,464.5 -0.5,464.5C -0.5,309.5 -0.5,154.5 -0.5,-0.5 Z"/></g>
<g><path style="opacity:1" fill="#4b4b4b" d="M 323.5,3.5 C 309.342,3.0187 295.342,3.5187 281.5,5C 290.196,5.77633 298.862,5.60966 307.5,4.5C 320.319,6.59959 333.319,8.09959 346.5,9C 349.734,9.71138 352.901,10.5447 356,11.5C 356.167,11.1667 356.333,10.8333 356.5,10.5C 354.668,9.94316 353.335,8.94316 352.5,7.5C 369.86,10.6183 386.194,16.285 401.5,24.5C 396.603,22.6455 391.603,20.9789 386.5,19.5C 384.627,19.4823 384.294,19.9823 385.5,21C 398.436,25.4249 410.603,31.2582 422,38.5C 422.483,37.552 422.649,36.552 422.5,35.5C 443.197,47.8513 461.53,63.1847 477.5,81.5C 478.757,84.4274 480.757,86.7607 483.5,88.5C 492.325,98.8035 499.658,110.137 505.5,122.5C 505.5,122.833 505.5,123.167 505.5,123.5C 504.761,123.369 504.094,123.536 503.5,124C 510.981,139.415 517.481,155.248 523,171.5C 524.46,177.132 525.793,182.799 527,188.5C 527.005,183.853 526.838,179.186 526.5,174.5C 529.334,183.16 531.001,192.16 531.5,201.5C 530.698,200.048 530.198,198.382 530,196.5C 529.667,196.167 529.333,195.833 529,195.5C 531.073,217.161 530.906,238.828 528.5,260.5C 528.572,262.56 528.905,264.56 529.5,266.5C 527.012,269.093 527.012,271.427 529.5,273.5C 529.5,273.833 529.5,274.167 529.5,274.5C 528.343,285.142 525.843,295.475 522,305.5C 521.583,306.756 520.75,307.423 519.5,307.5C 519.607,305.621 519.107,305.288 518,306.5C 513.129,319.24 507.462,331.573 501,343.5C 500.333,344.5 500.333,345.5 501,346.5C 501.417,345.244 502.25,344.577 503.5,344.5C 499.92,351.729 495.587,358.395 490.5,364.5C 486.834,367.364 484.167,371.03 482.5,375.5C 448.676,417.267 405.343,443.934 352.5,455.5C 346.6,455.883 340.933,456.883 335.5,458.5C 335.167,458.5 334.833,458.5 334.5,458.5C 332.105,457.234 329.438,456.568 326.5,456.5C 251.511,457.655 176.511,457.821 101.5,457C 97.886,455.388 97.5527,456.221 100.5,459.5C 94.9181,455.91 93.4181,450.91 96,444.5C 97.0391,443.29 98.2058,442.29 99.5,441.5C 99.8333,441.5 100.167,441.5 100.5,441.5C 99.5423,442.962 98.3756,444.295 97,445.5C 96.3333,446.5 96.3333,447.5 97,448.5C 97.8333,446.333 99.3333,444.833 101.5,444C 173.698,443.39 245.865,443.89 318,445.5C 331.624,443.354 345.124,440.521 358.5,437C 361.876,435.497 365.209,433.997 368.5,432.5C 368.043,431.702 367.376,431.369 366.5,431.5C 371.555,428.924 376.888,426.924 382.5,425.5C 380.432,426.375 378.432,427.541 376.5,429C 377,429.167 377.5,429.333 378,429.5C 391.067,425.053 403.567,419.053 415.5,411.5C 416.833,410.833 416.833,410.167 415.5,409.5C 413.55,410.372 411.55,411.039 409.5,411.5C 413.323,408.084 417.657,405.418 422.5,403.5C 421.375,405.129 420.041,406.629 418.5,408C 434.278,398.929 448.445,387.429 461,373.5C 461.635,372.034 462.469,370.7 463.5,369.5C 463.376,368.893 463.043,368.56 462.5,368.5C 462.5,367.833 462.5,367.167 462.5,366.5C 463.167,366.167 463.833,365.833 464.5,365.5C 464.369,366.239 464.536,366.906 465,367.5C 468.757,364.414 471.757,360.748 474,356.5C 477.706,353.489 481.373,350.489 485,347.5C 485.684,346.216 485.517,345.049 484.5,344C 488.34,335.818 492.34,327.652 496.5,319.5C 496.154,318.304 495.654,318.304 495,319.5C 492.333,324.833 489.667,330.167 487,335.5C 486.241,337.063 485.074,338.063 483.5,338.5C 489.202,327.097 494.868,315.763 500.5,304.5C 500.238,305.978 500.571,307.311 501.5,308.5C 506.052,298.622 508.886,288.289 510,277.5C 509.878,279.437 509.045,280.77 507.5,281.5C 508.472,274.641 509.805,267.975 511.5,261.5C 511.328,266.533 511.161,271.533 511,276.5C 512.839,270.967 514.172,265.301 515,259.5C 517.176,234.11 516.676,208.777 513.5,183.5C 512.5,183.5 511.5,183.5 510.5,183.5C 510.628,181.345 510.128,179.345 509,177.5C 508.51,178.793 508.343,180.127 508.5,181.5C 508.167,181.5 507.833,181.5 507.5,181.5C 506.366,178.63 505.7,175.63 505.5,172.5C 505.59,169.848 504.924,167.515 503.5,165.5C 503.267,162.458 502.267,159.792 500.5,157.5C 492.717,139.931 483.384,123.264 472.5,107.5C 473.552,107.649 474.552,107.483 475.5,107C 464.109,90.9476 450.776,76.9476 435.5,65C 431.833,62.6667 428.833,59.6667 426.5,56C 423.444,55.6511 422.444,56.8178 423.5,59.5C 409.53,51.0172 395.197,43.3505 380.5,36.5C 354.61,27.5182 327.944,22.8515 300.5,22.5C 297.72,21.7707 294.887,21.104 292,20.5C 288.665,20.393 285.832,21.393 283.5,23.5C 239.513,28.1684 200.846,44.835 167.5,73.5C 162.284,74.3813 158.951,77.3813 157.5,82.5C 157.167,83.5 156.5,84.1667 155.5,84.5C 150.956,85.873 147.789,88.873 146,93.5C 144.644,92.6198 143.144,92.2865 141.5,92.5C 141.031,95.3387 141.031,98.0054 141.5,100.5C 120.171,127.827 105.838,158.494 98.5,192.5C 97.3349,196.109 96.1683,199.776 95,203.5C 94.3405,206.047 94.5071,208.547 95.5,211C 94.0118,213.625 93.1785,216.458 93,219.5C 92.3333,226.833 92.3333,234.167 93,241.5C 93.9023,243.927 94.7356,246.26 95.5,248.5C 96.0201,256.214 96.0201,263.881 95.5,271.5C 92.352,276.539 88.0187,277.706 82.5,275C 78.2417,270.728 76.2417,265.561 76.5,259.5C 77.1635,261.042 77.8302,262.709 78.5,264.5C 78.8333,262.333 79.1667,260.167 79.5,258C 75.5607,221.115 79.7274,185.282 92,150.5C 92.8372,148.156 94.1706,146.156 96,144.5C 96.6667,142.5 96.6667,140.5 96,138.5C 95.6174,139.056 95.1174,139.389 94.5,139.5C 99.4136,124.685 106.747,111.352 116.5,99.5C 116.185,101.226 116.019,102.893 116,104.5C 130.412,84.4206 147.245,66.5873 166.5,51C 164.494,51.1503 162.494,51.6503 160.5,52.5C 168.007,45.6675 176.34,40.0008 185.5,35.5C 188.167,34.5 190.833,33.5 193.5,32.5C 204.029,27.7371 214.696,23.2371 225.5,19C 226.888,18.1107 226.722,17.6107 225,17.5C 222.114,19.2254 218.948,19.8921 215.5,19.5C 223.068,15.8661 231.068,13.1994 239.5,11.5C 243.794,12.1927 247.461,11.1927 250.5,8.5C 253.777,8.21614 256.943,8.54948 260,9.5C 260.374,8.58377 260.874,7.75044 261.5,7C 265.038,6.46524 268.372,5.6319 271.5,4.5C 281.283,2.95253 291.283,2.28587 301.5,2.5C 309.008,2.50032 316.341,2.83365 323.5,3.5 Z"/></g>
<g><path style="opacity:0.1" fill="#717070" d="M 335.5,4.5 C 341.4,4.88283 347.067,5.88283 352.5,7.5C 346.556,7.37528 340.89,6.37528 335.5,4.5 Z"/></g>
<g><path style="opacity:1" fill="#646262" d="M 271.5,4.5 C 268.372,5.6319 265.038,6.46524 261.5,7C 260.874,7.75044 260.374,8.58377 260,9.5C 256.943,8.54948 253.777,8.21614 250.5,8.5C 257.238,6.42017 264.238,5.08684 271.5,4.5 Z"/></g>
<g><path style="opacity:1" fill="#383736" d="M 323.5,3.5 C 327.6,3.23674 331.6,3.57007 335.5,4.5C 340.89,6.37528 346.556,7.37528 352.5,7.5C 353.335,8.94316 354.668,9.94316 356.5,10.5C 356.333,10.8333 356.167,11.1667 356,11.5C 352.901,10.5447 349.734,9.71138 346.5,9C 333.319,8.09959 320.319,6.59959 307.5,4.5C 298.862,5.60966 290.196,5.77633 281.5,5C 295.342,3.5187 309.342,3.0187 323.5,3.5 Z"/></g>
<g><path style="opacity:1" fill="#656464" d="M 250.5,8.5 C 247.461,11.1927 243.794,12.1927 239.5,11.5C 242.854,9.74241 246.521,8.74241 250.5,8.5 Z"/></g>
<g><path style="opacity:1" fill="#7b7877" d="M 300.5,22.5 C 294.99,22.3454 289.324,22.6788 283.5,23.5C 285.832,21.393 288.665,20.393 292,20.5C 294.887,21.104 297.72,21.7707 300.5,22.5 Z"/></g>
<g><path style="opacity:1" fill="#312f2f" d="M 299.5,20.5 C 317.711,18.8402 335.711,20.6735 353.5,26C 347.51,25.4462 341.51,24.4462 335.5,23C 323.544,21.4677 311.544,20.6344 299.5,20.5 Z"/></g>
<g><path style="opacity:1" fill="#363433" d="M 193.5,32.5 C 200.898,28.1397 208.231,23.8064 215.5,19.5C 218.948,19.8921 222.114,19.2254 225,17.5C 226.722,17.6107 226.888,18.1107 225.5,19C 214.696,23.2371 204.029,27.7371 193.5,32.5 Z"/></g>
<g><path style="opacity:0.1" fill="#6f6e6e" d="M 403.5,25.5 C 406.908,26.3668 410.242,27.5335 413.5,29C 416.214,31.6783 419.214,33.845 422.5,35.5C 415.728,32.9477 409.394,29.6144 403.5,25.5 Z"/></g>
<g><path style="opacity:1" fill="#31302f" d="M 401.5,24.5 C 402.492,24.3284 403.158,24.6618 403.5,25.5C 409.394,29.6144 415.728,32.9477 422.5,35.5C 422.649,36.552 422.483,37.552 422,38.5C 410.603,31.2582 398.436,25.4249 385.5,21C 384.294,19.9823 384.627,19.4823 386.5,19.5C 391.603,20.9789 396.603,22.6455 401.5,24.5 Z"/></g>
<g><path style="opacity:0.1" fill="#767575" d="M 215.5,19.5 C 208.231,23.8064 200.898,28.1397 193.5,32.5C 190.833,33.5 188.167,34.5 185.5,35.5C 188.754,32.5285 192.42,30.0285 196.5,28C 202.619,24.6058 208.952,21.7725 215.5,19.5 Z"/></g>
<g><path style="opacity:1" fill="#333232" d="M 380.5,36.5 C 380.47,35.5028 380.97,34.8361 382,34.5C 392.161,37.4963 401.661,41.9963 410.5,48C 401.714,44.9495 393.047,41.2828 384.5,37C 383.207,36.51 381.873,36.3433 380.5,36.5 Z"/></g>
<g><path style="opacity:0.1" fill="#838383" d="M 440.5,72.5 C 443.833,73.8333 446.167,76.1667 447.5,79.5C 444.833,77.5 442.5,75.1667 440.5,72.5 Z"/></g>
<g><path style="opacity:0.745" fill="#797878" d="M 167.5,73.5 C 164.789,77.2119 161.456,80.2119 157.5,82.5C 158.951,77.3813 162.284,74.3813 167.5,73.5 Z"/></g>
<g><path style="opacity:0.988" fill="#3a3838" d="M 472.5,107.5 C 469.167,103.167 465.833,98.8333 462.5,94.5C 459.604,90.0954 456.104,86.0954 452,82.5C 451.517,81.552 451.351,80.552 451.5,79.5C 450.167,79.5 448.833,79.5 447.5,79.5C 446.167,76.1667 443.833,73.8333 440.5,72.5C 435.013,67.9242 429.347,63.5909 423.5,59.5C 422.444,56.8178 423.444,55.6511 426.5,56C 428.833,59.6667 431.833,62.6667 435.5,65C 450.776,76.9476 464.109,90.9476 475.5,107C 474.552,107.483 473.552,107.649 472.5,107.5 Z"/></g>
<g><path style="opacity:0.1" fill="#757575" d="M 447.5,79.5 C 448.833,79.5 450.167,79.5 451.5,79.5C 451.351,80.552 451.517,81.552 452,82.5C 456.104,86.0954 459.604,90.0954 462.5,94.5C 457.167,89.8333 452.167,84.8333 447.5,79.5 Z"/></g>
<g><path style="opacity:0.1" fill="#8d8d8e" d="M 477.5,81.5 C 480.243,83.2393 482.243,85.5726 483.5,88.5C 480.757,86.7607 478.757,84.4274 477.5,81.5 Z"/></g>
<g><path style="opacity:1" fill="#3b3a39" d="M 116.5,99.5 C 117.786,96.883 119.453,94.5496 121.5,92.5C 127.792,87.3681 133.292,81.3681 138,74.5C 145.573,67.8197 152.74,60.8197 159.5,53.5C 159.5,52.8333 159.833,52.5 160.5,52.5C 162.494,51.6503 164.494,51.1503 166.5,51C 147.245,66.5873 130.412,84.4206 116,104.5C 116.019,102.893 116.185,101.226 116.5,99.5 Z"/></g>
<g><path style="opacity:0.561" fill="#666564" d="M 159.5,53.5 C 152.74,60.8197 145.573,67.8197 138,74.5C 133.292,81.3681 127.792,87.3681 121.5,92.5C 132.148,77.5191 144.814,64.5191 159.5,53.5 Z"/></g>
<g><path style="opacity:0.1" fill="#b3b3b3" d="M 286.5,90.5 C 284.5,91.1667 282.5,91.8333 280.5,92.5C 277.763,92.4013 275.096,92.7347 272.5,93.5C 272.611,92.8826 272.944,92.3826 273.5,92C 277.79,91.0775 282.123,90.5775 286.5,90.5 Z"/></g>
<g><path style="opacity:0.993" fill="#646362" d="M 155.5,84.5 C 151.177,90.1549 146.51,95.4882 141.5,100.5C 141.031,98.0054 141.031,95.3387 141.5,92.5C 143.144,92.2865 144.644,92.6198 146,93.5C 147.789,88.873 150.956,85.873 155.5,84.5 Z"/></g>
<g><path style="opacity:0.998" fill="#4e4e4e" d="M 358.5,100.5 C 362.444,102.964 366.777,104.63 371.5,105.5C 379.341,109.343 386.341,114.343 392.5,120.5C 390.629,120.141 389.129,119.141 388,117.5C 387.5,118 387,118.5 386.5,119C 394.343,125.566 401.676,132.566 408.5,140C 409.332,140.688 409.998,140.521 410.5,139.5C 409.048,138.06 408.048,136.394 407.5,134.5C 420.103,147.353 429.436,162.353 435.5,179.5C 434.105,177.946 433.439,178.279 433.5,180.5C 446.428,213.485 446.761,246.652 434.5,280C 434.667,280.5 434.833,281 435,281.5C 435.377,280.058 436.21,279.058 437.5,278.5C 434.873,286.883 431.373,294.883 427,302.5C 419.964,313.209 411.798,323.042 402.5,332C 386.249,345.222 368.249,355.555 348.5,363C 344.558,363.993 340.558,364.66 336.5,365C 332.5,366.667 328.5,368.333 324.5,370C 298.682,373.039 273.682,370.039 249.5,361C 245.34,359.088 241.34,356.921 237.5,354.5C 236.549,355.326 235.549,355.492 234.5,355C 232.097,353.147 229.764,351.314 227.5,349.5C 228.847,350.028 230.181,350.195 231.5,350C 224.592,342.881 216.925,336.714 208.5,331.5C 204.515,327.015 200.349,322.682 196,318.5C 193.202,313.737 190.036,309.237 186.5,305C 185.833,304.333 185.167,304.333 184.5,305C 185.252,305.671 185.586,306.504 185.5,307.5C 184.542,307.047 183.708,306.381 183,305.5C 177.364,294.963 172.864,283.963 169.5,272.5C 169.5,271.5 169.5,270.5 169.5,269.5C 170.139,268.903 170.472,268.07 170.5,267C 168.077,260.053 166.577,252.887 166,245.5C 165.83,234.992 165.33,224.659 164.5,214.5C 164.5,213.833 164.5,213.167 164.5,212.5C 164.198,209.941 164.532,207.607 165.5,205.5C 165.336,208.187 165.503,210.854 166,213.5C 167.793,200.657 171.293,188.323 176.5,176.5C 176.333,176.167 176.167,175.833 176,175.5C 175.292,176.381 174.458,177.047 173.5,177.5C 178.821,162.172 187.154,148.839 198.5,137.5C 197.969,139.544 196.802,141.211 195,142.5C 194.333,143.5 194.333,144.5 195,145.5C 204.973,132.858 216.806,122.358 230.5,114C 232.101,113.727 233.601,113.227 235,112.5C 235.414,112.957 235.914,113.291 236.5,113.5C 236.833,112.167 237.167,110.833 237.5,109.5C 241.631,109.289 244.964,107.622 247.5,104.5C 252.777,103.079 257.777,100.912 262.5,98C 260.203,97.9822 257.869,98.1489 255.5,98.5C 258.799,96.5165 262.466,95.5165 266.5,95.5C 266.082,96.2216 265.416,96.7216 264.5,97C 270.901,96.5741 277.234,95.5741 283.5,94C 296.167,93.6667 308.833,93.3333 321.5,93C 316.329,91.2541 310.995,90.4208 305.5,90.5C 297.169,91.25 288.835,91.9166 280.5,92.5C 282.5,91.8333 284.5,91.1667 286.5,90.5C 296.155,89.6339 305.822,89.4672 315.5,90C 329.908,93.0846 344.241,96.5846 358.5,100.5 Z"/></g>
<g><path style="opacity:0.839" fill="#393838" d="M 266.5,95.5 C 268.214,94.2616 270.214,93.595 272.5,93.5C 275.096,92.7347 277.763,92.4013 280.5,92.5C 288.835,91.9166 297.169,91.25 305.5,90.5C 310.995,90.4208 316.329,91.2541 321.5,93C 308.833,93.3333 296.167,93.6667 283.5,94C 277.234,95.5741 270.901,96.5741 264.5,97C 265.416,96.7216 266.082,96.2216 266.5,95.5 Z"/></g>
<g><path style="opacity:0.325" fill="#727272" d="M 358.5,100.5 C 363.223,101.37 367.556,103.036 371.5,105.5C 366.777,104.63 362.444,102.964 358.5,100.5 Z"/></g>
<g><path style="opacity:0.102" fill="#fdfdfd" d="M 323.5,180.5 C 323.84,182.679 324.84,184.512 326.5,186C 331.356,188.26 335.689,191.26 339.5,195C 341.366,195.985 343.366,196.485 345.5,196.5C 367.518,190.55 389.352,183.884 411,176.5C 412.599,177.071 413.766,178.071 414.5,179.5C 419.337,190.009 422.337,201.009 423.5,212.5C 414.831,214.391 406.498,217.057 398.5,220.5C 384.685,224.494 371.018,228.994 357.5,234C 356.333,235.167 355.167,236.333 354,237.5C 352.738,243.285 351.072,248.952 349,254.5C 348.245,257.303 348.578,259.97 350,262.5C 360.697,277.349 371.53,292.016 382.5,306.5C 384.451,310.229 386.784,313.729 389.5,317C 383.469,322.99 377.135,328.49 370.5,333.5C 367.726,334.723 365.059,336.223 362.5,338C 361.167,338.667 359.833,338.667 358.5,338C 345.207,318.72 331.207,300.053 316.5,282C 307.398,281.058 298.398,281.391 289.5,283C 280.589,295.064 271.923,307.231 263.5,319.5C 259.103,323.959 255.436,328.959 252.5,334.5C 251.017,336.094 249.517,337.76 248,339.5C 239.531,335.022 231.698,329.689 224.5,323.5C 222.273,321.551 220.273,319.384 218.5,317C 220.982,313.021 223.649,309.188 226.5,305.5C 237.57,290.371 248.403,275.038 259,259.5C 259.667,257.833 259.667,256.167 259,254.5C 256.731,249.36 255.065,244.027 254,238.5C 252.833,236 251,234.167 248.5,233C 228.179,226.393 207.846,219.893 187.5,213.5C 185.958,212.859 184.624,211.859 183.5,210.5C 184.992,204.866 186.325,199.199 187.5,193.5C 189.277,187.354 192.111,181.688 196,176.5C 216.476,183.077 236.976,189.577 257.5,196C 260.5,196.667 263.5,196.667 266.5,196C 272.604,191.863 278.437,187.363 284,182.5C 284.5,158.836 284.667,135.169 284.5,111.5C 297.051,109.194 309.718,108.861 322.5,110.5C 322.169,134.006 322.502,157.339 323.5,180.5 Z"/></g>
<g><path style="opacity:0.353" fill="#7b7978" d="M 323.5,180.5 C 322.502,157.339 322.169,134.006 322.5,110.5C 309.718,108.861 297.051,109.194 284.5,111.5C 284.577,110.25 285.244,109.417 286.5,109C 298.546,108.188 310.546,108.354 322.5,109.5C 323.5,133.157 323.833,156.824 323.5,180.5 Z"/></g>
<g><path style="opacity:0.91" fill="#403f3f" d="M 198.5,137.5 C 213.969,119.368 232.969,106.368 255.5,98.5C 257.869,98.1489 260.203,97.9822 262.5,98C 257.777,100.912 252.777,103.079 247.5,104.5C 244.964,107.622 241.631,109.289 237.5,109.5C 237.167,110.833 236.833,112.167 236.5,113.5C 235.914,113.291 235.414,112.957 235,112.5C 233.601,113.227 232.101,113.727 230.5,114C 216.806,122.358 204.973,132.858 195,145.5C 194.333,144.5 194.333,143.5 195,142.5C 196.802,141.211 197.969,139.544 198.5,137.5 Z"/></g>
<g><path style="opacity:0.103" fill="#fdfdfd" d="M 264.5,173.5 C 262.918,174.876 261.085,175.876 259,176.5C 241.108,171.49 223.608,165.49 206.5,158.5C 216.239,146.093 227.573,135.426 240.5,126.5C 246.151,124.341 251.484,121.674 256.5,118.5C 259.477,117.929 262.31,116.929 265,115.5C 265.82,134.907 265.653,154.24 264.5,173.5 Z"/></g>
<g><path style="opacity:0.103" fill="#fbfbfb" d="M 382.5,137.5 C 386.833,142.5 391.5,147.167 396.5,151.5C 397.912,153.98 399.578,156.313 401.5,158.5C 383.875,165.034 366.041,171.034 348,176.5C 345.845,175.421 343.845,174.087 342,172.5C 341.833,163.167 341.667,153.833 341.5,144.5C 341.344,134.678 341.844,125.011 343,115.5C 357.336,120.913 370.502,128.247 382.5,137.5 Z"/></g>
<g><path style="opacity:0.6" fill="#807d7c" d="M 256.5,118.5 C 251.484,121.674 246.151,124.341 240.5,126.5C 240.953,125.542 241.619,124.708 242.5,124C 247.124,121.828 251.791,119.994 256.5,118.5 Z"/></g>
<g><path style="opacity:0.267" fill="#8c8b8b" d="M 264.5,173.5 C 265.653,154.24 265.82,134.907 265,115.5C 262.31,116.929 259.477,117.929 256.5,118.5C 259.309,116.103 262.642,114.77 266.5,114.5C 267.154,134.528 266.488,154.195 264.5,173.5 Z"/></g>
<g><path style="opacity:0.745" fill="#6e6d6d" d="M 505.5,122.5 C 507.89,124.734 509.724,127.401 511,130.5C 514.405,137.305 517.239,144.305 519.5,151.5C 514.341,142.515 509.674,133.182 505.5,123.5C 505.5,123.167 505.5,122.833 505.5,122.5 Z"/></g>
<g><path style="opacity:0.871" fill="#393838" d="M 392.5,120.5 C 398.155,124.489 403.155,129.156 407.5,134.5C 408.048,136.394 409.048,138.06 410.5,139.5C 409.998,140.521 409.332,140.688 408.5,140C 401.676,132.566 394.343,125.566 386.5,119C 387,118.5 387.5,118 388,117.5C 389.129,119.141 390.629,120.141 392.5,120.5 Z"/></g>
<g><path style="opacity:0.729" fill="#817e7d" d="M 382.5,137.5 C 386.419,140.075 390.085,143.075 393.5,146.5C 394.952,147.94 395.952,149.606 396.5,151.5C 391.5,147.167 386.833,142.5 382.5,137.5 Z"/></g>
<g><path style="opacity:0.4" fill="#7b7b7b" d="M 94.5,139.5 C 92.9552,144.92 90.6219,149.92 87.5,154.5C 88.986,150.188 90.486,145.854 92,141.5C 92.7083,140.619 93.5416,139.953 94.5,139.5 Z"/></g>
<g><path style="opacity:0.392" fill="#848383" d="M 87.5,154.5 C 87.2766,158.162 86.2766,161.495 84.5,164.5C 84.7234,160.838 85.7234,157.505 87.5,154.5 Z"/></g>
<g><path style="opacity:0.318" fill="#747473" d="M 500.5,157.5 C 502.267,159.792 503.267,162.458 503.5,165.5C 501.733,163.208 500.733,160.542 500.5,157.5 Z"/></g>
<g><path style="opacity:0.596" fill="#797878" d="M 522.5,160.5 C 524.746,164.805 526.08,169.471 526.5,174.5C 524.56,170.085 523.227,165.418 522.5,160.5 Z"/></g>
<g><path style="opacity:0.282" fill="#797777" d="M 503.5,165.5 C 504.924,167.515 505.59,169.848 505.5,172.5C 504.076,170.485 503.41,168.152 503.5,165.5 Z"/></g>
<g><path style="opacity:0.157" fill="#8d8d8d" d="M 84.5,164.5 C 84.5905,167.152 83.9238,169.485 82.5,171.5C 82.4095,168.848 83.0762,166.515 84.5,164.5 Z"/></g>
<g><path style="opacity:0.976" fill="#3b3a3a" d="M 505.5,123.5 C 509.674,133.182 514.341,142.515 519.5,151.5C 521.095,154.285 522.095,157.285 522.5,160.5C 523.227,165.418 524.56,170.085 526.5,174.5C 526.838,179.186 527.005,183.853 527,188.5C 525.793,182.799 524.46,177.132 523,171.5C 517.481,155.248 510.981,139.415 503.5,124C 504.094,123.536 504.761,123.369 505.5,123.5 Z"/></g>
<g><path style="opacity:0.396" fill="#747474" d="M 173.5,177.5 C 172.411,182.767 170.744,187.767 168.5,192.5C 169.194,187.085 170.86,182.085 173.5,177.5 Z"/></g>
<g><path style="opacity:0.216" fill="#858585" d="M 507.5,181.5 C 507.833,181.5 508.167,181.5 508.5,181.5C 509.425,185.79 510.091,190.124 510.5,194.5C 508.882,190.425 507.882,186.092 507.5,181.5 Z"/></g>
<g><path style="opacity:0.637" fill="#5f5f5f" d="M 82.5,171.5 C 82.1244,178.215 81.2911,184.881 80,191.5C 79.6174,190.944 79.1174,190.611 78.5,190.5C 78.8307,183.841 80.164,177.507 82.5,171.5 Z"/></g>
<g><path style="opacity:0.631" fill="#787473" d="M 414.5,179.5 C 420.186,188.709 423.853,198.876 425.5,210C 425.316,211.376 424.649,212.209 423.5,212.5C 422.337,201.009 419.337,190.009 414.5,179.5 Z"/></g>
<g><path style="opacity:0.627" fill="#656464" d="M 168.5,192.5 C 167.943,197.052 166.943,201.385 165.5,205.5C 165.425,200.808 166.425,196.474 168.5,192.5 Z"/></g>
<g><path style="opacity:0.782" fill="#2e2c2c" d="M 165.5,205.5 C 166.943,201.385 167.943,197.052 168.5,192.5C 170.744,187.767 172.411,182.767 173.5,177.5C 174.458,177.047 175.292,176.381 176,175.5C 176.167,175.833 176.333,176.167 176.5,176.5C 171.293,188.323 167.793,200.657 166,213.5C 165.503,210.854 165.336,208.187 165.5,205.5 Z"/></g>
<g><path style="opacity:0.604" fill="#7a7776" d="M 187.5,193.5 C 186.325,199.199 184.992,204.866 183.5,210.5C 184.624,211.859 185.958,212.859 187.5,213.5C 184.07,214.245 182.403,212.911 182.5,209.5C 183.282,203.648 184.949,198.314 187.5,193.5 Z"/></g>
<g><path style="opacity:0.387" fill="#5d5e5e" d="M 435.5,179.5 C 438.782,187.296 441.449,195.296 443.5,203.5C 443.5,205.833 443.5,208.167 443.5,210.5C 441.012,200.216 438.345,189.883 435.5,179.5 Z"/></g>
<g><path style="opacity:0.954" fill="#454443" d="M 531.5,201.5 C 533.005,211.456 533.672,221.623 533.5,232C 533.5,239.008 533.166,245.842 532.5,252.5C 531.105,259.308 530.105,266.308 529.5,273.5C 527.012,271.427 527.012,269.093 529.5,266.5C 528.905,264.56 528.572,262.56 528.5,260.5C 530.906,238.828 531.073,217.161 529,195.5C 529.333,195.833 529.667,196.167 530,196.5C 530.198,198.382 530.698,200.048 531.5,201.5 Z"/></g>
<g><path style="opacity:0.968" fill="#3f3d3d" d="M 76.5,259.5 C 76.5,241.167 76.5,222.833 76.5,204.5C 76.2291,199.566 76.8958,194.9 78.5,190.5C 79.1174,190.611 79.6174,190.944 80,191.5C 81.2911,184.881 82.1244,178.215 82.5,171.5C 83.9238,169.485 84.5905,167.152 84.5,164.5C 86.2766,161.495 87.2766,158.162 87.5,154.5C 90.6219,149.92 92.9552,144.92 94.5,139.5C 95.1174,139.389 95.6174,139.056 96,138.5C 96.6667,140.5 96.6667,142.5 96,144.5C 94.1706,146.156 92.8372,148.156 92,150.5C 79.7274,185.282 75.5607,221.115 79.5,258C 79.1667,260.167 78.8333,262.333 78.5,264.5C 77.8302,262.709 77.1635,261.042 76.5,259.5 Z"/></g>
<g><path style="opacity:0.137" fill="#fdfdfd" d="M 443.5,203.5 C 445.031,208.25 445.698,213.25 445.5,218.5C 444.833,215.833 444.167,213.167 443.5,210.5C 443.5,208.167 443.5,205.833 443.5,203.5 Z"/></g>
<g><path style="opacity:0.604" fill="#787675" d="M 423.5,212.5 C 415.502,215.943 407.169,218.609 398.5,220.5C 406.498,217.057 414.831,214.391 423.5,212.5 Z"/></g>
<g><path style="opacity:0.996" fill="#4e4e4e" d="M 298.5,217.5 C 314.925,216.75 320.425,224.084 315,239.5C 310.509,244.259 305.009,245.759 298.5,244C 290.958,240.016 288.458,233.849 291,225.5C 292.69,221.979 295.19,219.312 298.5,217.5 Z"/></g>
<g><path style="opacity:0.763" fill="#716e6e" d="M 98.5,192.5 C 95.9339,211.069 94.9339,229.735 95.5,248.5C 94.7356,246.26 93.9023,243.927 93,241.5C 92.3333,234.167 92.3333,226.833 93,219.5C 93.1785,216.458 94.0118,213.625 95.5,211C 94.5071,208.547 94.3405,206.047 95,203.5C 96.1683,199.776 97.3349,196.109 98.5,192.5 Z"/></g>
<g><path style="opacity:0.263" fill="#717171" d="M 164.5,212.5 C 164.5,213.167 164.5,213.833 164.5,214.5C 164.369,228.848 164.702,243.181 165.5,257.5C 163.954,249.058 163.287,240.391 163.5,231.5C 163.5,224.991 163.834,218.658 164.5,212.5 Z"/></g>
<g><path style="opacity:0.647" fill="#7b7979" d="M 76.5,204.5 C 76.5,222.833 76.5,241.167 76.5,259.5C 73.9928,241.16 73.9928,222.827 76.5,204.5 Z"/></g>
<g><path style="opacity:0.913" fill="#312f2f" d="M 435.5,179.5 C 438.345,189.883 441.012,200.216 443.5,210.5C 444.233,222.152 444.566,233.819 444.5,245.5C 442.395,255.358 440.395,265.358 438.5,275.5C 437.89,276.391 437.557,277.391 437.5,278.5C 436.21,279.058 435.377,280.058 435,281.5C 434.833,281 434.667,280.5 434.5,280C 446.761,246.652 446.428,213.485 433.5,180.5C 433.439,178.279 434.105,177.946 435.5,179.5 Z"/></g>
<g><path style="opacity:0.916" fill="#434241" d="M 511.5,261.5 C 512.106,258.833 512.939,256.166 514,253.5C 514.825,243.658 514.658,233.991 513.5,224.5C 512.587,214.637 511.587,204.637 510.5,194.5C 510.091,190.124 509.425,185.79 508.5,181.5C 508.343,180.127 508.51,178.793 509,177.5C 510.128,179.345 510.628,181.345 510.5,183.5C 511.5,183.5 512.5,183.5 513.5,183.5C 516.676,208.777 517.176,234.11 515,259.5C 514.172,265.301 512.839,270.967 511,276.5C 511.161,271.533 511.328,266.533 511.5,261.5 Z"/></g>
<g><path style="opacity:0.102" fill="#fdfdfd" d="M 183.5,231.5 C 201.463,237.322 219.297,243.655 237,250.5C 237.991,252.447 238.325,254.447 238,256.5C 232.921,263.398 228.087,270.398 223.5,277.5C 218.399,282.936 214.066,288.936 210.5,295.5C 208.901,297.604 207.068,299.604 205,301.5C 202.252,298.266 199.752,294.932 197.5,291.5C 194.462,284.765 191.462,278.098 188.5,271.5C 185.228,260.407 183.228,249.073 182.5,237.5C 182.505,235.304 182.838,233.304 183.5,231.5 Z"/></g>
<g><path style="opacity:0.102" fill="#fdfdfd" d="M 409.5,292.5 C 407.526,294.428 406.026,296.761 405,299.5C 404.163,301.007 402.996,301.507 401.5,301C 391.612,286.058 381.112,271.558 370,257.5C 369.07,254.15 369.903,251.317 372.5,249C 381.7,246.102 390.7,242.935 399.5,239.5C 407.933,237.245 416.266,234.578 424.5,231.5C 425.484,245.935 423.317,259.935 418,273.5C 415.155,279.855 412.321,286.188 409.5,292.5 Z"/></g>
<g><path style="opacity:0.427" fill="#535555" d="M 443.5,210.5 C 444.167,213.167 444.833,215.833 445.5,218.5C 445.827,227.682 445.493,236.682 444.5,245.5C 444.566,233.819 444.233,222.152 443.5,210.5 Z"/></g>
<g><path style="opacity:0.634" fill="#6c6b6b" d="M 513.5,224.5 C 514.658,233.991 514.825,243.658 514,253.5C 512.939,256.166 512.106,258.833 511.5,261.5C 512.344,249.177 513.01,236.844 513.5,224.5 Z"/></g>
<g><path style="opacity:0.471" fill="#777473" d="M 409.5,292.5 C 412.321,286.188 415.155,279.855 418,273.5C 423.317,259.935 425.484,245.935 424.5,231.5C 416.266,234.578 407.933,237.245 399.5,239.5C 408.236,235.806 417.236,232.473 426.5,229.5C 427.504,251.154 422.671,271.487 412,290.5C 411.292,291.381 410.458,292.047 409.5,292.5 Z"/></g>
<g><path style="opacity:0.573" fill="#7d7a79" d="M 183.5,231.5 C 182.838,233.304 182.505,235.304 182.5,237.5C 183.228,249.073 185.228,260.407 188.5,271.5C 186.411,268.563 184.911,265.23 184,261.5C 181.765,251.287 180.598,240.954 180.5,230.5C 181.791,230.263 182.791,230.596 183.5,231.5 Z"/></g>
<g><path style="opacity:0.835" fill="#2c2928" d="M 164.5,214.5 C 165.33,224.659 165.83,234.992 166,245.5C 166.577,252.887 168.077,260.053 170.5,267C 170.472,268.07 170.139,268.903 169.5,269.5C 168.152,265.416 166.819,261.416 165.5,257.5C 164.702,243.181 164.369,228.848 164.5,214.5 Z"/></g>
<g><path style="opacity:0.203" fill="#828181" d="M 95.5,248.5 C 96.458,253.649 97.1246,258.983 97.5,264.5C 97.6839,267.205 97.0173,269.538 95.5,271.5C 96.0201,263.881 96.0201,256.214 95.5,248.5 Z"/></g>
<g><path style="opacity:0.221" fill="#848383" d="M 532.5,252.5 C 532.468,260.1 531.468,267.434 529.5,274.5C 529.5,274.167 529.5,273.833 529.5,273.5C 530.105,266.308 531.105,259.308 532.5,252.5 Z"/></g>
<g><path style="opacity:0.341" fill="#656667" d="M 444.5,245.5 C 443.99,255.917 441.99,265.917 438.5,275.5C 440.395,265.358 442.395,255.358 444.5,245.5 Z"/></g>
<g><path style="opacity:0.333" fill="#6e6e6e" d="M 165.5,257.5 C 166.819,261.416 168.152,265.416 169.5,269.5C 169.5,270.5 169.5,271.5 169.5,272.5C 167.095,267.888 165.762,262.888 165.5,257.5 Z"/></g>
<g><path style="opacity:0.647" fill="#727171" d="M 223.5,277.5 C 219.934,284.064 215.601,290.064 210.5,295.5C 214.066,288.936 218.399,282.936 223.5,277.5 Z"/></g>
<g><path style="opacity:0.412" fill="#797979" d="M 507.5,281.5 C 507.59,284.152 506.924,286.485 505.5,288.5C 505.41,285.848 506.076,283.515 507.5,281.5 Z"/></g>
<g><path style="opacity:0.667" fill="#706f6e" d="M 505.5,288.5 C 505.013,294.291 503.346,299.624 500.5,304.5C 501.796,298.95 503.463,293.617 505.5,288.5 Z"/></g>
<g><path style="opacity:0.533" fill="#7b7877" d="M 197.5,291.5 C 199.752,294.932 202.252,298.266 205,301.5C 207.068,299.604 208.901,297.604 210.5,295.5C 207.854,304.472 204.354,305.138 200,297.5C 198.878,295.593 198.045,293.593 197.5,291.5 Z"/></g>
<g><path style="opacity:0.102" fill="#fdfdfd" d="M 335.5,339.5 C 337.403,341.628 339.069,343.961 340.5,346.5C 328.362,350.592 315.862,352.592 303,352.5C 294.769,352.511 286.602,351.844 278.5,350.5C 274.796,349.596 271.13,348.262 267.5,346.5C 278.306,331.193 289.306,316.027 300.5,301C 303.669,300.022 306.503,300.522 309,302.5C 317.352,315.215 326.186,327.548 335.5,339.5 Z"/></g>
<g><path style="opacity:0.847" fill="#333130" d="M 500.5,304.5 C 503.346,299.624 505.013,294.291 505.5,288.5C 506.924,286.485 507.59,284.152 507.5,281.5C 509.045,280.77 509.878,279.437 510,277.5C 508.886,288.289 506.052,298.622 501.5,308.5C 500.571,307.311 500.238,305.978 500.5,304.5 Z"/></g>
<g><path style="opacity:0.929" fill="#3d3c3c" d="M 227.5,349.5 C 225.407,348.955 223.407,348.122 221.5,347C 207.533,335.537 195.533,322.371 185.5,307.5C 185.586,306.504 185.252,305.671 184.5,305C 185.167,304.333 185.833,304.333 186.5,305C 190.036,309.237 193.202,313.737 196,318.5C 200.349,322.682 204.515,327.015 208.5,331.5C 216.925,336.714 224.592,342.881 231.5,350C 230.181,350.195 228.847,350.028 227.5,349.5 Z"/></g>
<g><path style="opacity:0.514" fill="#777575" d="M 226.5,305.5 C 223.649,309.188 220.982,313.021 218.5,317C 220.273,319.384 222.273,321.551 224.5,323.5C 220.797,322.632 218.13,320.466 216.5,317C 219.02,312.323 222.354,308.489 226.5,305.5 Z"/></g>
<g><path style="opacity:0.329" fill="#686767" d="M 518.5,312.5 C 517.618,316.593 515.951,320.26 513.5,323.5C 514.393,319.387 516.06,315.72 518.5,312.5 Z"/></g>
<g><path style="opacity:1" fill="#505050" d="M 142.5,323.5 C 140.692,322.093 138.692,320.926 136.5,320C 93.8333,319.333 51.1667,319.333 8.5,320C 8.16667,320.333 7.83333,320.667 7.5,321C 50.5,321.333 93.5,321.667 136.5,322C 137.667,322.5 138.5,323.333 139,324.5C 140.004,327.993 139.504,331.159 137.5,334C 94.5,334.667 51.5,334.667 8.5,334C 5.67349,331.909 5.00683,332.409 6.5,335.5C 5.20577,334.71 4.0391,333.71 3,332.5C 2.33333,329.167 2.33333,325.833 3,322.5C 4.22734,320.274 6.06068,318.774 8.5,318C 51.1667,317.333 93.8333,317.333 136.5,318C 139.641,318.715 141.641,320.548 142.5,323.5 Z"/></g>
<g><path style="opacity:0.635" fill="#787575" d="M 382.5,306.5 C 385.098,308.304 387.265,310.638 389,313.5C 390.187,315.044 390.52,316.711 390,318.5C 384.251,324.608 377.751,329.608 370.5,333.5C 377.135,328.49 383.469,322.99 389.5,317C 386.784,313.729 384.451,310.229 382.5,306.5 Z"/></g>
<g><path style="opacity:0.529" fill="#747272" d="M 263.5,319.5 C 262.559,321.466 261.559,323.466 260.5,325.5C 261.55,327.102 260.883,327.935 258.5,328C 257.002,330.664 255.002,332.83 252.5,334.5C 255.436,328.959 259.103,323.959 263.5,319.5 Z"/></g>
<g><path style="opacity:1" fill="#353433" d="M 142.5,323.5 C 145.142,329.848 143.142,334.181 136.5,336.5C 93.1242,336.823 49.7908,336.489 6.5,335.5C 5.00683,332.409 5.67349,331.909 8.5,334C 51.5,334.667 94.5,334.667 137.5,334C 139.504,331.159 140.004,327.993 139,324.5C 138.5,323.333 137.667,322.5 136.5,322C 93.5,321.667 50.5,321.333 7.5,321C 7.83333,320.667 8.16667,320.333 8.5,320C 51.1667,319.333 93.8333,319.333 136.5,320C 138.692,320.926 140.692,322.093 142.5,323.5 Z"/></g>
<g><path style="opacity:0.345" fill="#676767" d="M 6.5,335.5 C 49.7908,336.489 93.1242,336.823 136.5,336.5C 93.6686,337.665 50.6686,337.831 7.5,337C 6.94404,336.617 6.61071,336.117 6.5,335.5 Z"/></g>
<g><path style="opacity:0.939" fill="#363433" d="M 519.5,307.5 C 519.371,309.216 519.038,310.883 518.5,312.5C 516.06,315.72 514.393,319.387 513.5,323.5C 513.34,325.153 512.674,326.486 511.5,327.5C 508.045,332.746 505.378,338.413 503.5,344.5C 502.25,344.577 501.417,345.244 501,346.5C 500.333,345.5 500.333,344.5 501,343.5C 507.462,331.573 513.129,319.24 518,306.5C 519.107,305.288 519.607,305.621 519.5,307.5 Z"/></g>
<g><path style="opacity:0.275" fill="#767474" d="M 511.5,327.5 C 510.168,333.905 507.501,339.572 503.5,344.5C 505.378,338.413 508.045,332.746 511.5,327.5 Z"/></g>
<g><path style="opacity:1" fill="#3d3c3c" d="M 464.5,365.5 C 466.587,364.415 467.92,362.749 468.5,360.5C 473.727,355.719 477.727,350.052 480.5,343.5C 481.11,341.566 482.11,339.899 483.5,338.5C 485.074,338.063 486.241,337.063 487,335.5C 489.667,330.167 492.333,324.833 495,319.5C 495.654,318.304 496.154,318.304 496.5,319.5C 492.34,327.652 488.34,335.818 484.5,344C 485.517,345.049 485.684,346.216 485,347.5C 481.373,350.489 477.706,353.489 474,356.5C 471.757,360.748 468.757,364.414 465,367.5C 464.536,366.906 464.369,366.239 464.5,365.5 Z"/></g>
<g><path style="opacity:0.353" fill="#727272" d="M 480.5,343.5 C 477.727,350.052 473.727,355.719 468.5,360.5C 472.257,354.65 476.257,348.983 480.5,343.5 Z"/></g>
<g><path style="opacity:0.421" fill="#7c7b7b" d="M 335.5,339.5 C 337.017,339.511 338.184,340.177 339,341.5C 340.903,343.441 341.736,345.774 341.5,348.5C 323.491,353.104 305.158,354.604 286.5,353C 283.478,352.902 280.811,352.068 278.5,350.5C 286.602,351.844 294.769,352.511 303,352.5C 315.862,352.592 328.362,350.592 340.5,346.5C 339.069,343.961 337.403,341.628 335.5,339.5 Z"/></g>
<g><path style="opacity:0.392" fill="#706e6d" d="M 468.5,360.5 C 467.92,362.749 466.587,364.415 464.5,365.5C 465.08,363.251 466.413,361.585 468.5,360.5 Z"/></g>
<g><path style="opacity:0.545" fill="#7a7979" d="M 490.5,364.5 C 488.6,368.732 485.933,372.399 482.5,375.5C 484.167,371.03 486.834,367.364 490.5,364.5 Z"/></g>
<g><path style="opacity:0.941" fill="#353433" d="M 462.5,368.5 C 463.043,368.56 463.376,368.893 463.5,369.5C 462.469,370.7 461.635,372.034 461,373.5C 448.445,387.429 434.278,398.929 418.5,408C 420.041,406.629 421.375,405.129 422.5,403.5C 426.392,401.938 429.725,399.605 432.5,396.5C 434.749,395.92 436.415,394.587 437.5,392.5C 446.446,385.222 454.779,377.222 462.5,368.5 Z"/></g>
<g><path style="opacity:0.396" fill="#727271" d="M 462.5,366.5 C 462.5,367.167 462.5,367.833 462.5,368.5C 454.779,377.222 446.446,385.222 437.5,392.5C 445.784,383.88 454.118,375.214 462.5,366.5 Z"/></g>
<g><path style="opacity:1" fill="#3a3939" d="M 183.5,397.5 C 183.167,397.5 182.833,397.5 182.5,397.5C 181.432,396.566 180.099,396.232 178.5,396.5C 183.939,394.96 185.773,391.293 184,385.5C 183.167,384.667 182.333,383.833 181.5,383C 138.833,382.333 96.1667,382.333 53.5,383C 51.683,384.8 50.5163,386.966 50,389.5C 48.872,387.655 48.372,385.655 48.5,383.5C 49.2899,382.206 50.2899,381.039 51.5,380C 95.1667,379.333 138.833,379.333 182.5,380C 188.666,383.656 190.166,388.822 187,395.5C 185.887,396.305 184.721,396.972 183.5,397.5 Z"/></g>
<g><path style="opacity:1" fill="#4a4a4a" d="M 178.5,396.5 C 137.153,395.839 96.1531,396.506 55.5,398.5C 55.1667,398.5 54.8333,398.5 54.5,398.5C 49.4868,397.181 46.8201,393.847 46.5,388.5C 46.8008,386.578 47.4675,384.912 48.5,383.5C 48.372,385.655 48.872,387.655 50,389.5C 50.5163,386.966 51.683,384.8 53.5,383C 96.1667,382.333 138.833,382.333 181.5,383C 182.333,383.833 183.167,384.667 184,385.5C 185.773,391.293 183.939,394.96 178.5,396.5 Z"/></g>
<g><path style="opacity:0.361" fill="#7c7b7b" d="M 437.5,392.5 C 436.415,394.587 434.749,395.92 432.5,396.5C 433.539,394.469 435.205,393.136 437.5,392.5 Z"/></g>
<g><path style="opacity:0.83" fill="#302d2c" d="M 178.5,396.5 C 180.099,396.232 181.432,396.566 182.5,397.5C 140.197,398.484 97.8636,398.817 55.5,398.5C 96.1531,396.506 137.153,395.839 178.5,396.5 Z"/></g>
<g><path style="opacity:0.251" fill="#787777" d="M 182.5,397.5 C 182.833,397.5 183.167,397.5 183.5,397.5C 182.737,398.268 181.737,398.768 180.5,399C 138.331,399.831 96.3313,399.665 54.5,398.5C 54.8333,398.5 55.1667,398.5 55.5,398.5C 97.8636,398.817 140.197,398.484 182.5,397.5 Z"/></g>
<g><path style="opacity:0.404" fill="#706f6f" d="M 432.5,396.5 C 429.725,399.605 426.392,401.938 422.5,403.5C 425.275,400.395 428.608,398.062 432.5,396.5 Z"/></g>
<g><path style="opacity:0.976" fill="#353433" d="M 382.5,425.5 C 387.367,425.066 391.367,423.066 394.5,419.5C 400.593,418.624 405.593,415.957 409.5,411.5C 411.55,411.039 413.55,410.372 415.5,409.5C 416.833,410.167 416.833,410.833 415.5,411.5C 403.567,419.053 391.067,425.053 378,429.5C 377.5,429.333 377,429.167 376.5,429C 378.432,427.541 380.432,426.375 382.5,425.5 Z"/></g>
<g><path style="opacity:0.58" fill="#646362" d="M 409.5,411.5 C 405.593,415.957 400.593,418.624 394.5,419.5C 399.333,416.582 404.333,413.916 409.5,411.5 Z"/></g>
<g><path style="opacity:0.557" fill="#696767" d="M 394.5,419.5 C 391.367,423.066 387.367,425.066 382.5,425.5C 385.902,422.465 389.902,420.465 394.5,419.5 Z"/></g>
<g><path style="opacity:0.774" fill="#5d5b5b" d="M 366.5,431.5 C 361.948,434.377 356.948,436.211 351.5,437C 347.514,437.499 343.514,437.666 339.5,437.5C 348.352,435.373 357.352,433.373 366.5,431.5 Z"/></g>
<g><path style="opacity:0.397" fill="#737170" d="M 247.5,440.5 C 198.504,441.233 149.504,441.567 100.5,441.5C 100.167,441.5 99.8333,441.5 99.5,441.5C 141.501,440.697 183.667,440.031 226,439.5C 233.341,439.5 240.508,439.834 247.5,440.5 Z"/></g>
<g><path style="opacity:0.988" fill="#403e3e" d="M 366.5,431.5 C 367.376,431.369 368.043,431.702 368.5,432.5C 365.209,433.997 361.876,435.497 358.5,437C 345.124,440.521 331.624,443.354 318,445.5C 245.865,443.89 173.698,443.39 101.5,444C 99.3333,444.833 97.8333,446.333 97,448.5C 96.3333,447.5 96.3333,446.5 97,445.5C 98.3756,444.295 99.5423,442.962 100.5,441.5C 149.504,441.567 198.504,441.233 247.5,440.5C 278.241,441.177 308.908,440.177 339.5,437.5C 343.514,437.666 347.514,437.499 351.5,437C 356.948,436.211 361.948,434.377 366.5,431.5 Z"/></g>
<g><path style="opacity:0.972" fill="#353433" d="M 334.5,458.5 C 256.508,459.458 178.508,459.791 100.5,459.5C 97.5527,456.221 97.886,455.388 101.5,457C 176.511,457.821 251.511,457.655 326.5,456.5C 329.438,456.568 332.105,457.234 334.5,458.5 Z"/></g>
<g><path style="opacity:0.23" fill="#828282" d="M 352.5,455.5 C 347.11,457.375 341.444,458.375 335.5,458.5C 340.933,456.883 346.6,455.883 352.5,455.5 Z"/></g>
<g><path style="opacity:0.217" fill="#7e7e7e" d="M 334.5,458.5 C 334.833,458.5 335.167,458.5 335.5,458.5C 331.688,459.324 327.688,459.824 323.5,460C 248.999,460.832 174.666,460.666 100.5,459.5C 178.508,459.791 256.508,459.458 334.5,458.5 Z"/></g>
</svg>
