<?xml version="1.0" encoding="UTF-8"?>
<!DOCTYPE svg PUBLIC "-//W3C//DTD SVG 1.1//EN" "http://www.w3.org/Graphics/SVG/1.1/DTD/svg11.dtd">
<svg xmlns="http://www.w3.org/2000/svg" version="1.1" width="520px" height="451px" style="shape-rendering:geometricPrecision; text-rendering:geometricPrecision; image-rendering:optimizeQuality; fill-rule:evenodd; clip-rule:evenodd" xmlns:xlink="http://www.w3.org/1999/xlink">
<g><path style="opacity:0.998" fill="#4b4b4b" d="M 397.5,28.5 C 398.492,28.3284 399.158,28.6618 399.5,29.5C 398.226,30.1894 398.226,31.0228 399.5,32C 402.833,33.6667 406.167,35.3333 409.5,37C 415.158,40.9874 420.824,44.9874 426.5,49C 427.749,49.7401 428.749,49.5735 429.5,48.5C 430.5,48.8333 431.167,49.5 431.5,50.5C 430.475,50.8966 430.308,51.5632 431,52.5C 445.918,63.4184 458.918,76.4184 470,91.5C 470.464,90.9056 470.631,90.2389 470.5,89.5C 471.338,89.8417 471.672,90.5084 471.5,91.5C 477.311,101.111 483.144,110.778 489,120.5C 493.645,130.459 498.311,140.459 503,150.5C 503.399,150.272 503.565,149.938 503.5,149.5C 504.338,149.842 504.672,150.508 504.5,151.5C 503.378,153.288 503.211,155.288 504,157.5C 514.4,188.565 517.233,220.398 512.5,253C 513.721,256.303 513.388,259.303 511.5,262C 511.387,263.699 512.053,264.866 513.5,265.5C 511.928,274.129 509.595,282.462 506.5,290.5C 505.5,290.5 504.5,290.5 503.5,290.5C 501.147,302.554 496.814,313.888 490.5,324.5C 490.957,325.298 491.624,325.631 492.5,325.5C 489.321,331.87 485.654,337.87 481.5,343.5C 481.095,342.45 480.429,342.45 479.5,343.5C 466.243,364.931 449.576,383.431 429.5,399C 429.728,399.399 430.062,399.565 430.5,399.5C 430.158,400.338 429.492,400.672 428.5,400.5C 427.448,400.351 426.448,400.517 425.5,401C 418.382,407.55 410.382,411.883 401.5,414C 402.5,414.333 403.5,414.667 404.5,415C 397.167,418.667 389.833,422.333 382.5,426C 383.056,426.383 383.389,426.883 383.5,427.5C 382.833,427.833 382.167,428.167 381.5,428.5C 381.631,427.624 381.298,426.957 380.5,426.5C 365.906,433.056 350.906,437.889 335.5,441C 336.094,441.464 336.761,441.631 337.5,441.5C 333.316,442.772 328.983,443.772 324.5,444.5C 322.26,443.313 319.76,442.646 317,442.5C 245.18,443.656 173.346,443.822 101.5,443C 96.6393,443.138 93.9726,440.804 93.5,436C 94.5,434.333 95.5,432.667 96.5,431C 115.746,429.845 135.079,429.345 154.5,429.5C 206.148,430.186 257.648,430.519 309,430.5C 332.962,428.255 355.795,422.088 377.5,412C 378.738,411.31 378.738,410.81 377.5,410.5C 377.842,409.662 378.508,409.328 379.5,409.5C 379.369,410.239 379.536,410.906 380,411.5C 397.123,403.692 412.623,393.526 426.5,381C 426.272,380.601 425.938,380.435 425.5,380.5C 425.973,379.094 426.973,378.427 428.5,378.5C 435.302,373.226 441.969,367.06 448.5,360C 449.5,359.667 450.5,359.333 451.5,359C 451.167,358.667 450.833,358.333 450.5,358C 452,355.167 454.167,353 457,351.5C 458.845,349.133 460.011,346.467 460.5,343.5C 460.328,342.508 460.662,341.842 461.5,341.5C 461.393,343.379 461.893,343.712 463,342.5C 479.724,318.672 491.224,292.506 497.5,264C 497.316,262.624 496.649,261.791 495.5,261.5C 495.328,260.508 495.662,259.842 496.5,259.5C 497.697,258.739 498.53,257.072 499,254.5C 501.377,240.189 501.711,225.855 500,211.5C 499.505,213.473 499.338,215.473 499.5,217.5C 498.523,214.713 498.19,211.713 498.5,208.5C 499.193,204.435 499.86,200.268 500.5,196C 499.54,194.581 498.707,193.081 498,191.5C 497.766,187.686 496.932,184.019 495.5,180.5C 495.709,179.914 496.043,179.414 496.5,179C 495.594,176.553 494.761,174.053 494,171.5C 493.31,170.262 492.81,170.262 492.5,171.5C 491.662,171.158 491.328,170.492 491.5,169.5C 492.376,169.631 493.043,169.298 493.5,168.5C 486.165,143.825 474.832,121.158 459.5,100.5C 449.981,90.1487 440.648,79.6487 431.5,69C 423.114,62.2802 414.447,55.9468 405.5,50C 387.44,39.5617 368.273,31.3951 348,25.5C 345.992,25.3068 344.492,25.9735 343.5,27.5C 342.833,27.5 342.5,27.1667 342.5,26.5C 342.5,25.5 342.5,24.5 342.5,23.5C 331.587,21.5524 320.587,20.0524 309.5,19C 302.833,18.3333 296.167,18.3333 289.5,19C 290.044,19.7172 290.711,20.2172 291.5,20.5C 207.304,25.9031 146.471,66.2364 109,141.5C 95.1199,173.403 89.2866,206.736 91.5,241.5C 90.4467,248.186 90.2801,255.186 91,262.5C 83.9095,266.968 79.2428,264.968 77,256.5C 76.6012,256.728 76.4346,257.062 76.5,257.5C 75.6618,257.158 75.3284,256.492 75.5,255.5C 76.3764,255.631 77.0431,255.298 77.5,254.5C 72.5863,215.499 77.253,177.833 91.5,141.5C 91.0431,140.702 90.3764,140.369 89.5,140.5C 94.0691,129.693 99.4025,119.36 105.5,109.5C 105.775,111.842 106.608,111.842 108,109.5C 110.513,105.142 113.513,101.142 117,97.5C 118.99,92.1871 121.99,87.5204 126,83.5C 126.692,82.5632 126.525,81.8966 125.5,81.5C 133.227,71.4385 142.227,62.7718 152.5,55.5C 153.922,55.2914 155.255,54.7914 156.5,54C 170.48,42.3346 185.814,32.6679 202.5,25C 203.738,24.31 203.738,23.81 202.5,23.5C 202.842,22.6618 203.508,22.3284 204.5,22.5C 205.251,23.5735 206.251,23.7401 207.5,23C 218.293,18.4027 229.293,14.4027 240.5,11C 240.272,10.6012 239.938,10.4346 239.5,10.5C 239.842,9.66175 240.508,9.32842 241.5,9.5C 242.097,10.1386 242.93,10.472 244,10.5C 296.424,-0.676993 346.59,5.48967 394.5,29C 395.749,29.7401 396.749,29.5735 397.5,28.5 Z M 381.5,50.5 C 381.5,51.1667 381.833,51.5 382.5,51.5C 382.5,51.8333 382.5,52.1667 382.5,52.5C 381.5,52.5 380.5,52.5 379.5,52.5C 379.131,50.0065 379.797,49.3398 381.5,50.5 Z M 381.5,55.5 C 380.711,55.2172 380.044,54.7172 379.5,54C 380.816,53.4719 381.483,53.9719 381.5,55.5 Z"/></g>
<g><path style="opacity:0.553" fill="#313131" d="M 397.5,28.5 C 396.749,29.5735 395.749,29.7401 394.5,29C 346.59,5.48967 296.424,-0.676993 244,10.5C 242.93,10.472 242.097,10.1386 241.5,9.5C 295.964,-3.34028 347.964,2.99306 397.5,28.5 Z"/></g>
<g><path style="opacity:0.434" fill="#313131" d="M 239.5,10.5 C 239.938,10.4346 240.272,10.6012 240.5,11C 229.293,14.4027 218.293,18.4027 207.5,23C 206.251,23.7401 205.251,23.5735 204.5,22.5C 215.535,16.9321 227.201,12.9321 239.5,10.5 Z"/></g>
<g><path style="opacity:0.275" fill="#333333" d="M 342.5,26.5 C 325.704,22.8929 308.704,20.8929 291.5,20.5C 290.711,20.2172 290.044,19.7172 289.5,19C 296.167,18.3333 302.833,18.3333 309.5,19C 320.587,20.0524 331.587,21.5524 342.5,23.5C 342.5,24.5 342.5,25.5 342.5,26.5 Z"/></g>
<g><path style="opacity:0.42" fill="#323232" d="M 202.5,23.5 C 203.738,23.81 203.738,24.31 202.5,25C 185.814,32.6679 170.48,42.3346 156.5,54C 155.255,54.7914 153.922,55.2914 152.5,55.5C 167.284,42.0796 183.951,31.4129 202.5,23.5 Z"/></g>
<g><path style="opacity:0.043" fill="#666666" d="M 388.5,53.5 C 387.508,53.3284 386.842,53.6618 386.5,54.5C 385.167,54.8333 385.167,55.1667 386.5,55.5C 386.586,56.4959 386.252,57.3292 385.5,58C 386.167,58.6667 386.833,59.3333 387.5,60C 386.768,62.363 386.768,64.863 387.5,67.5C 386.167,67.8333 386.167,68.1667 387.5,68.5C 387.649,70.351 387.649,72.1843 387.5,74C 388.167,74.3333 388.833,74.6667 389.5,75C 388.619,75.7083 387.953,76.5416 387.5,77.5C 384.977,80.2285 381.977,80.8952 378.5,79.5C 376.067,78.5869 373.567,77.5869 371,76.5C 370.667,76.8333 370.333,77.1667 370,77.5C 361.602,72.4371 353.769,66.6038 346.5,60C 347.167,59.6667 347.833,59.3333 348.5,59C 347.572,58.6121 346.905,57.9454 346.5,57C 347.424,55.85 347.424,54.85 346.5,54C 350.841,50.8276 355.508,48.1609 360.5,46C 361.5,45 362.5,44 363.5,43C 362.833,42.6667 362.167,42.3333 361.5,42C 362.6,40.977 363.933,40.477 365.5,40.5C 369.35,42.2523 373.35,43.7523 377.5,45C 380.14,45.8965 382.307,47.3965 384,49.5C 384.333,49.1667 384.667,48.8333 385,48.5C 386.14,50.2792 387.307,51.9459 388.5,53.5 Z M 381.5,50.5 C 381.5,51.1667 381.833,51.5 382.5,51.5C 382.5,51.8333 382.5,52.1667 382.5,52.5C 381.5,52.5 380.5,52.5 379.5,52.5C 379.131,50.0065 379.797,49.3398 381.5,50.5 Z M 381.5,55.5 C 381.483,53.9719 380.816,53.4719 379.5,54C 380.044,54.7172 380.711,55.2172 381.5,55.5 Z"/></g>
<g><path style="opacity:0.408" fill="#323232" d="M 399.5,29.5 C 410.148,34.8231 420.148,41.1564 429.5,48.5C 428.749,49.5735 427.749,49.7401 426.5,49C 420.824,44.9874 415.158,40.9874 409.5,37C 406.167,35.3333 402.833,33.6667 399.5,32C 398.226,31.0228 398.226,30.1894 399.5,29.5 Z"/></g>
<g><path style="opacity:0.102" fill="#737373" d="M 359.5,48.5 C 360.688,49.6843 361.855,49.6843 363,48.5C 363.667,49.1667 364.333,49.8333 365,50.5C 365.667,49.1667 366.333,49.1667 367,50.5C 367.974,48.1224 368.641,48.4557 369,51.5C 370,51.5 371,51.5 372,51.5C 375.02,54.3546 378.187,57.0213 381.5,59.5C 382.641,60.4255 382.641,61.2588 381.5,62C 384.167,62.6667 384.167,63.3333 381.5,64C 382.308,64.3076 382.975,64.8076 383.5,65.5C 382.167,66.8333 382.167,68.1667 383.5,69.5C 382.391,71.3853 381.557,73.3853 381,75.5C 380.646,73.1925 379.646,72.8592 378,74.5C 377,73.8333 376,73.1667 375,72.5C 372.346,73.8087 369.68,73.8087 367,72.5C 363.118,69.7915 358.618,66.2915 353.5,62C 353.833,61.6667 354.167,61.3333 354.5,61C 353.584,60.6258 352.75,60.1258 352,59.5C 352.046,57.6874 351.88,56.0207 351.5,54.5C 353.004,52.0406 355.171,50.374 358,49.5C 359.107,50.7119 359.607,50.3786 359.5,48.5 Z"/></g>
<g><path style="opacity:0.043" fill="#656665" d="M 388.5,53.5 C 389.833,54.1667 389.833,54.1667 388.5,53.5 Z"/></g>
<g><path style="opacity:0.043" fill="#656665" d="M 386.5,54.5 C 387.833,55.1667 387.833,55.1667 386.5,54.5 Z"/></g>
<g><path style="opacity:0.043" fill="#656665" d="M 344.5,56.5 C 345.833,57.1667 345.833,57.1667 344.5,56.5 Z"/></g>
<g><path style="opacity:0.129" fill="#2e2e2e" d="M 431.5,50.5 C 446.167,61.8333 459.167,74.8333 470.5,89.5C 470.631,90.2389 470.464,90.9056 470,91.5C 458.918,76.4184 445.918,63.4184 431,52.5C 430.308,51.5632 430.475,50.8966 431.5,50.5 Z"/></g>
<g><path style="opacity:0.043" fill="#656665" d="M 387.5,67.5 C 388.833,68.1667 388.833,68.1667 387.5,67.5 Z"/></g>
<g><path style="opacity:0.208" fill="#313131" d="M 491.5,169.5 C 471.626,104.789 430.293,59.6221 367.5,34C 359.732,30.9098 351.732,28.7431 343.5,27.5C 344.492,25.9735 345.992,25.3068 348,25.5C 368.273,31.3951 387.44,39.5617 405.5,50C 414.447,55.9468 423.114,62.2802 431.5,69C 440.648,79.6487 449.981,90.1487 459.5,100.5C 474.832,121.158 486.165,143.825 493.5,168.5C 493.043,169.298 492.376,169.631 491.5,169.5 Z"/></g>
<g><path style="opacity:0.043" fill="#656665" d="M 387.5,77.5 C 388.833,78.1667 388.833,78.1667 387.5,77.5 Z"/></g>
<g><path style="opacity:0.043" fill="#656665" d="M 378.5,79.5 C 377.833,80.1667 377.833,80.1667 378.5,79.5 Z"/></g>
<g><path style="opacity:0.429" fill="#c9c9c9" d="M 314.5,86.5 C 322.419,87.9763 330.085,89.9763 337.5,92.5C 336.432,93.4345 335.099,93.7678 333.5,93.5C 325.293,91.4312 316.959,89.9312 308.5,89C 307.366,87.984 307.699,87.3173 309.5,87C 311.134,86.5065 312.801,86.3398 314.5,86.5 Z"/></g>
<g><path style="opacity:1" fill="#4e4e4e" d="M 314.5,86.5 C 312.801,86.3398 311.134,86.5065 309.5,87C 307.699,87.3173 307.366,87.984 308.5,89C 316.959,89.9312 325.293,91.4312 333.5,93.5C 336.902,94.6346 340.235,95.9679 343.5,97.5C 342.624,97.3691 341.957,97.7025 341.5,98.5C 347.311,100.575 352.977,102.908 358.5,105.5C 359.275,103.698 360.275,103.031 361.5,103.5C 366.469,106.478 371.135,109.811 375.5,113.5C 374.499,114.789 374.666,116.122 376,117.5C 404.374,138.916 421.707,167.25 428,202.5C 432.048,230.856 428.215,257.689 416.5,283C 417.094,283.464 417.761,283.631 418.5,283.5C 411.021,297.302 402.021,309.969 391.5,321.5C 390.883,321.389 390.383,321.056 390,320.5C 358.277,350.752 320.444,363.585 276.5,359C 260.599,356.29 245.433,351.457 231,344.5C 230.235,344.57 229.735,344.903 229.5,345.5C 227.475,343.804 225.475,342.137 223.5,340.5C 224.774,339.811 224.774,338.977 223.5,338C 212.302,330.084 201.968,321.251 192.5,311.5C 191.893,311.624 191.56,311.957 191.5,312.5C 190.5,312.167 189.833,311.5 189.5,310.5C 190.043,310.44 190.376,310.107 190.5,309.5C 185.029,302.204 180.196,294.537 176,286.5C 175.31,285.262 174.81,285.262 174.5,286.5C 173.5,286.167 172.833,285.5 172.5,284.5C 173.497,284.53 174.164,284.03 174.5,283C 162.161,257.296 158.161,230.296 162.5,202C 162.164,200.97 161.497,200.47 160.5,200.5C 160.328,199.508 160.662,198.842 161.5,198.5C 163.927,191.043 166.761,183.043 170,174.5C 174.73,164.828 179.563,155.162 184.5,145.5C 184.328,144.508 184.662,143.842 185.5,143.5C 186.793,144.645 187.959,144.311 189,142.5C 192.062,139.107 194.728,135.441 197,131.5C 199.455,128.923 202.122,126.589 205,124.5C 205.692,123.563 205.525,122.897 204.5,122.5C 207.929,118.738 211.929,115.738 216.5,113.5C 225.016,108.844 233.682,104.344 242.5,100C 254.418,95.4811 266.752,92.4811 279.5,91C 288.833,90.6667 298.167,90.3333 307.5,90C 306.058,89.6232 305.058,88.7899 304.5,87.5C 307.708,85.4686 311.041,85.1353 314.5,86.5 Z"/></g>
<g><path style="opacity:0.358" fill="#333333" d="M 304.5,87.5 C 305.058,88.7899 306.058,89.6232 307.5,90C 298.167,90.3333 288.833,90.6667 279.5,91C 266.752,92.4811 254.418,95.4811 242.5,100C 233.682,104.344 225.016,108.844 216.5,113.5C 234.725,99.5829 255.392,91.4162 278.5,89C 287.13,87.8551 295.797,87.3551 304.5,87.5 Z"/></g>
<g><path style="opacity:0.435" fill="#7e7e7e" d="M 337.5,92.5 C 340.812,92.149 343.145,93.4823 344.5,96.5C 344.5,97.1667 344.167,97.5 343.5,97.5C 340.235,95.9679 336.902,94.6346 333.5,93.5C 335.099,93.7678 336.432,93.4345 337.5,92.5 Z"/></g>
<g><path style="opacity:0.408" fill="#303030" d="M 471.5,91.5 C 485.251,108.991 495.918,128.325 503.5,149.5C 503.565,149.938 503.399,150.272 503,150.5C 498.311,140.459 493.645,130.459 489,120.5C 483.144,110.778 477.311,101.111 471.5,91.5 Z"/></g>
<g><path style="opacity:0.457" fill="#353535" d="M 125.5,81.5 C 126.525,81.8966 126.692,82.5632 126,83.5C 121.99,87.5204 118.99,92.1871 117,97.5C 113.513,101.142 110.513,105.142 108,109.5C 106.608,111.842 105.775,111.842 105.5,109.5C 111.185,99.4623 117.852,90.129 125.5,81.5 Z"/></g>
<g><path style="opacity:0.484" fill="#353535" d="M 344.5,96.5 C 350.324,98.6577 355.99,100.991 361.5,103.5C 360.275,103.031 359.275,103.698 358.5,105.5C 352.977,102.908 347.311,100.575 341.5,98.5C 341.957,97.7025 342.624,97.3691 343.5,97.5C 344.167,97.5 344.5,97.1667 344.5,96.5 Z"/></g>
<g><path style="opacity:1" fill="#fcfcfc" d="M 269.5,181.5 C 272.863,181.487 275.03,179.821 276,176.5C 276.5,153.169 276.667,129.836 276.5,106.5C 288.807,105.257 301.14,105.257 313.5,106.5C 313.03,130.232 313.53,153.899 315,177.5C 319.786,180.618 324.286,184.118 328.5,188C 330.209,189.545 332.209,190.378 334.5,190.5C 354.696,184.713 374.696,178.213 394.5,171C 397.466,170.105 400.133,170.605 402.5,172.5C 407.66,183.311 410.993,194.644 412.5,206.5C 392.095,212.357 371.762,218.523 351.5,225C 348.438,226.061 345.938,227.894 344,230.5C 343.59,235.48 342.257,240.147 340,244.5C 339.333,247.5 339.333,250.5 340,253.5C 353.235,271.065 366.069,288.898 378.5,307C 374.136,313.031 368.802,318.031 362.5,322C 358.5,324.333 354.5,326.667 350.5,329C 349.5,329.667 348.5,329.667 347.5,329C 334.32,310.31 320.654,291.976 306.5,274C 298.833,273.333 291.167,273.333 283.5,274C 282.069,274.465 280.903,275.299 280,276.5C 267.297,294.6 254.13,312.267 240.5,329.5C 229.097,324.1 219.097,316.767 210.5,307.5C 223.667,289.167 236.833,270.833 250,252.5C 250.167,251.167 250.333,249.833 250.5,248.5C 248.435,243.353 246.935,238.02 246,232.5C 245.293,230.919 244.46,229.419 243.5,228C 221.959,220.533 200.293,213.533 178.5,207C 177.39,204.263 177.223,201.429 178,198.5C 180.343,189.137 183.677,180.137 188,171.5C 188.725,170.941 189.558,170.608 190.5,170.5C 210.471,176.239 230.137,182.739 249.5,190C 252.167,190.667 254.833,190.667 257.5,190C 261.102,186.559 265.102,183.725 269.5,181.5 Z"/></g>
<g><path style="opacity:1" fill="#d7d7d7" d="M 276.5,106.5 C 276.667,129.836 276.5,153.169 276,176.5C 275.03,179.821 272.863,181.487 269.5,181.5C 271.807,180.023 273.64,178.023 275,175.5C 275.168,152.33 275.668,129.33 276.5,106.5 Z"/></g>
<g><path style="opacity:1" fill="#fbfbfb" d="M 254.5,170.5 C 246.706,169.459 239.039,167.792 231.5,165.5C 220.444,162.037 209.444,158.37 198.5,154.5C 213.637,133.275 233.637,118.942 258.5,111.5C 258.667,130.503 258.5,149.503 258,168.5C 256.887,169.305 255.721,169.972 254.5,170.5 Z"/></g>
<g><path style="opacity:1" fill="#f9f9f9" d="M 330.5,111.5 C 354.787,118.607 374.62,132.274 390,152.5C 390.483,153.448 390.649,154.448 390.5,155.5C 388.801,155.34 387.134,155.506 385.5,156C 369.623,161.514 353.789,167.014 338,172.5C 335.766,171.299 333.599,169.965 331.5,168.5C 330.5,149.512 330.167,130.512 330.5,111.5 Z"/></g>
<g><path style="opacity:0.457" fill="#313131" d="M 204.5,122.5 C 205.525,122.897 205.692,123.563 205,124.5C 202.122,126.589 199.455,128.923 197,131.5C 194.728,135.441 192.062,139.107 189,142.5C 187.959,144.311 186.793,144.645 185.5,143.5C 190.753,135.578 197.086,128.578 204.5,122.5 Z"/></g>
<g><path style="opacity:1" fill="#b6b6b6" d="M 231.5,165.5 C 239.039,167.792 246.706,169.459 254.5,170.5C 254.134,171.695 253.301,172.361 252,172.5C 244.894,170.632 238.06,168.299 231.5,165.5 Z"/></g>
<g><path style="opacity:0.261" fill="#313131" d="M 375.5,113.5 C 422.519,151.378 439.685,200.044 427,259.5C 424.853,267.777 422.019,275.777 418.5,283.5C 417.761,283.631 417.094,283.464 416.5,283C 428.215,257.689 432.048,230.856 428,202.5C 421.707,167.25 404.374,138.916 376,117.5C 374.666,116.122 374.499,114.789 375.5,113.5 Z"/></g>
<g><path style="opacity:0.346" fill="#353535" d="M 89.5,140.5 C 90.3764,140.369 91.0431,140.702 91.5,141.5C 77.253,177.833 72.5863,215.499 77.5,254.5C 77.0431,255.298 76.3764,255.631 75.5,255.5C 70.24,215.914 74.9067,177.581 89.5,140.5 Z"/></g>
<g><path style="opacity:0.984" fill="#353535" d="M 184.5,145.5 C 179.563,155.162 174.73,164.828 170,174.5C 166.761,183.043 163.927,191.043 161.5,198.5C 164.275,182.008 170.109,166.675 179,152.5C 180.697,149.98 182.53,147.647 184.5,145.5 Z"/></g>
<g><path style="opacity:0.424" fill="#2e2e2e" d="M 498.5,208.5 C 497.472,196.002 495.472,183.668 492.5,171.5C 492.81,170.262 493.31,170.262 494,171.5C 494.761,174.053 495.594,176.553 496.5,179C 496.043,179.414 495.709,179.914 495.5,180.5C 496.932,184.019 497.766,187.686 498,191.5C 498.707,193.081 499.54,194.581 500.5,196C 499.86,200.268 499.193,204.435 498.5,208.5 Z"/></g>
<g><path style="opacity:0.408" fill="#323232" d="M 504.5,151.5 C 516.919,188.689 519.919,226.689 513.5,265.5C 512.053,264.866 511.387,263.699 511.5,262C 513.388,259.303 513.721,256.303 512.5,253C 517.233,220.398 514.4,188.565 504,157.5C 503.211,155.288 503.378,153.288 504.5,151.5 Z"/></g>
<g><path style="opacity:1" fill="#4e4e4e" d="M 305.5,216.5 C 306.2,220.798 306.533,225.131 306.5,229.5C 302.652,236.046 296.985,238.212 289.5,236C 282.509,231.067 280.675,224.567 284,216.5C 288.14,211.789 293.306,210.289 299.5,212C 301.66,213.332 303.66,214.832 305.5,216.5 Z"/></g>
<g><path style="opacity:1" fill="#8b8b8b" d="M 305.5,216.5 C 307.033,218.634 307.7,221.134 307.5,224C 307.494,226.033 307.161,227.866 306.5,229.5C 306.533,225.131 306.2,220.798 305.5,216.5 Z"/></g>
<g><path style="opacity:1" fill="#919191" d="M 411.5,224.5 C 412.209,223.596 413.209,223.263 414.5,223.5C 414.802,226.059 414.468,228.393 413.5,230.5C 413.975,227.918 413.308,225.918 411.5,224.5 Z"/></g>
<g><path style="opacity:1" fill="#fbfbfb" d="M 177.5,224.5 C 194.544,229.681 211.544,235.181 228.5,241C 230.292,242.865 231.626,245.031 232.5,247.5C 223.333,260.5 214.167,273.5 205,286.5C 203.289,289.255 201.122,291.589 198.5,293.5C 186.212,276.903 178.879,258.236 176.5,237.5C 176.182,232.968 176.515,228.634 177.5,224.5 Z"/></g>
<g><path style="opacity:1" fill="#fafafa" d="M 411.5,224.5 C 413.308,225.918 413.975,227.918 413.5,230.5C 412.674,254.227 405.007,275.227 390.5,293.5C 379.505,278.998 368.672,264.331 358,249.5C 357.85,246.579 358.35,243.746 359.5,241C 376.776,235.184 394.11,229.684 411.5,224.5 Z"/></g>
<g><path style="opacity:0.996" fill="#a2a2a2" d="M 177.5,224.5 C 176.515,228.634 176.182,232.968 176.5,237.5C 175.188,232.985 175.188,228.318 176.5,223.5C 177.107,223.624 177.44,223.957 177.5,224.5 Z"/></g>
<g><path style="opacity:0.302" fill="#333333" d="M 160.5,200.5 C 161.497,200.47 162.164,200.97 162.5,202C 158.161,230.296 162.161,257.296 174.5,283C 174.164,284.03 173.497,284.53 172.5,284.5C 160.016,257.781 156.016,229.781 160.5,200.5 Z"/></g>
<g><path style="opacity:0.435" fill="#353535" d="M 496.5,259.5 C 498.119,245.549 499.119,231.549 499.5,217.5C 499.338,215.473 499.505,213.473 500,211.5C 501.711,225.855 501.377,240.189 499,254.5C 498.53,257.072 497.697,258.739 496.5,259.5 Z"/></g>
<g><path style="opacity:0.507" fill="#2f2f2f" d="M 91.5,241.5 C 92.486,246.311 93.1527,251.311 93.5,256.5C 92.6115,266.617 87.7782,269.284 79,264.5C 77.5886,262.35 76.7553,260.016 76.5,257.5C 76.4346,257.062 76.6012,256.728 77,256.5C 79.2428,264.968 83.9095,266.968 91,262.5C 90.2801,255.186 90.4467,248.186 91.5,241.5 Z"/></g>
<g><path style="opacity:1" fill="#fafafa" d="M 290.5,290.5 C 293.572,290.183 296.572,290.516 299.5,291.5C 309.511,306.188 320.011,320.522 331,334.5C 331.483,335.448 331.649,336.448 331.5,337.5C 307.155,344.076 282.822,344.076 258.5,337.5C 259.692,334.438 261.192,331.438 263,328.5C 272.911,316.334 282.077,303.668 290.5,290.5 Z"/></g>
<g><path style="opacity:0.457" fill="#2f2f2f" d="M 189.5,310.5 C 182.987,303.481 177.987,295.481 174.5,286.5C 174.81,285.262 175.31,285.262 176,286.5C 180.196,294.537 185.029,302.204 190.5,309.5C 190.376,310.107 190.043,310.44 189.5,310.5 Z"/></g>
<g><path style="opacity:0.3" fill="#313131" d="M 506.5,290.5 C 502.668,302.499 498.001,314.165 492.5,325.5C 491.624,325.631 490.957,325.298 490.5,324.5C 496.814,313.888 501.147,302.554 503.5,290.5C 504.5,290.5 505.5,290.5 506.5,290.5 Z"/></g>
<g><path style="opacity:0.877" fill="#2f2f2f" d="M 7.5,309.5 C 49.168,309.333 90.8347,309.5 132.5,310C 137.369,312.24 139.202,316.073 138,321.5C 136.833,323.333 135.333,324.833 133.5,326C 91.8333,326.667 50.1667,326.667 8.5,326C 0.853864,320.91 0.520531,315.41 7.5,309.5 Z"/></g>
<g><path style="opacity:1" fill="#4b4b4b" d="M 9.5,311.5 C 50.5014,311.333 91.5014,311.5 132.5,312C 137.251,315.66 137.585,319.66 133.5,324C 91.8333,324.667 50.1667,324.667 8.5,324C 6.04561,323.057 5.04561,321.224 5.5,318.5C 5.19673,315.156 6.53006,312.822 9.5,311.5 Z"/></g>
<g><path style="opacity:0.967" fill="#fafafa" d="M 391.5,321.5 C 390.56,323.612 389.394,325.612 388,327.5C 387.194,332.013 385.861,336.346 384,340.5C 379.589,343.955 375.089,347.289 370.5,350.5C 368.973,352.193 367.64,354.027 366.5,356C 362.502,357.232 358.502,358.398 354.5,359.5C 341.32,362.176 328.32,365.343 315.5,369C 309.998,371.347 307.664,375.514 308.5,381.5C 305.72,381.945 303.053,381.945 300.5,381.5C 299.304,381.846 299.304,382.346 300.5,383C 295.865,382.989 291.531,383.989 287.5,386C 279.586,385.964 271.919,387.298 264.5,390C 262.549,393.787 259.549,396.287 255.5,397.5C 252.798,395.78 250.132,394.113 247.5,392.5C 245.401,387.714 243.568,382.714 242,377.5C 241.641,365.241 237.474,354.574 229.5,345.5C 229.735,344.903 230.235,344.57 231,344.5C 245.433,351.457 260.599,356.29 276.5,359C 320.444,363.585 358.277,350.752 390,320.5C 390.383,321.056 390.883,321.389 391.5,321.5 Z"/></g>
<g><path style="opacity:0.612" fill="#313131" d="M 495.5,261.5 C 496.649,261.791 497.316,262.624 497.5,264C 491.224,292.506 479.724,318.672 463,342.5C 461.893,343.712 461.393,343.379 461.5,341.5C 478.457,317.319 489.79,290.652 495.5,261.5 Z"/></g>
<g><path style="opacity:0.42" fill="#323232" d="M 223.5,340.5 C 211.328,333.001 200.661,323.668 191.5,312.5C 191.56,311.957 191.893,311.624 192.5,311.5C 201.968,321.251 212.302,330.084 223.5,338C 224.774,338.977 224.774,339.811 223.5,340.5 Z"/></g>
<g><path style="opacity:0.261" fill="#2f2f2f" d="M 481.5,343.5 C 468.05,365.289 451.05,383.956 430.5,399.5C 430.062,399.565 429.728,399.399 429.5,399C 449.576,383.431 466.243,364.931 479.5,343.5C 480.429,342.45 481.095,342.45 481.5,343.5 Z"/></g>
<g><path style="opacity:0.537" fill="#2e2e2e" d="M 460.5,343.5 C 460.011,346.467 458.845,349.133 457,351.5C 454.167,353 452,355.167 450.5,358C 450.833,358.333 451.167,358.667 451.5,359C 450.5,359.333 449.5,359.667 448.5,360C 441.969,367.06 435.302,373.226 428.5,378.5C 439.933,367.407 450.599,355.74 460.5,343.5 Z"/></g>
<g><path style="opacity:1" fill="#494949" d="M 47.5,379.5 C 46.1667,377.833 46.1667,376.167 47.5,374.5C 47.369,375.239 47.5357,375.906 48,376.5C 48.6853,373.943 50.1853,372.109 52.5,371C 93.5,370.333 134.5,370.333 175.5,371C 180.726,375.415 180.726,379.749 175.5,384C 134.833,384.667 94.1667,384.667 53.5,384C 50.5719,382.74 48.7386,380.573 48,377.5C 47.5357,378.094 47.369,378.761 47.5,379.5 Z"/></g>
<g><path style="opacity:0.043" fill="#656665" d="M 313.5,373.5 C 313.662,375.527 313.495,377.527 313,379.5C 312.667,379.167 312.333,378.833 312,378.5C 311.79,380.058 311.29,381.391 310.5,382.5C 310.711,379.152 311.711,376.152 313.5,373.5 Z"/></g>
<g><path style="opacity:0.407" fill="#e7e7e7" d="M 354.5,359.5 C 348.844,362.26 342.844,364.427 336.5,366C 330.838,369.804 324.504,371.471 317.5,371C 316.016,371.662 314.683,372.496 313.5,373.5C 311.711,376.152 310.711,379.152 310.5,382.5C 305.72,382.885 301.053,383.885 296.5,385.5C 297.325,386.386 298.325,386.719 299.5,386.5C 299.833,387.167 300.167,387.833 300.5,388.5C 299.833,388.5 299.5,388.833 299.5,389.5C 298.833,389.5 298.5,389.833 298.5,390.5C 297.167,390.833 297.167,391.167 298.5,391.5C 294.543,393.963 290.543,393.796 286.5,391C 278.863,388.473 271.529,389.139 264.5,393C 262.542,395.748 260.709,398.582 259,401.5C 257.267,403.602 255.267,403.935 253,402.5C 250.888,399.273 249.055,395.94 247.5,392.5C 250.132,394.113 252.798,395.78 255.5,397.5C 259.549,396.287 262.549,393.787 264.5,390C 271.919,387.298 279.586,385.964 287.5,386C 291.531,383.989 295.865,382.989 300.5,383C 299.304,382.346 299.304,381.846 300.5,381.5C 303.053,381.945 305.72,381.945 308.5,381.5C 307.664,375.514 309.998,371.347 315.5,369C 328.32,365.343 341.32,362.176 354.5,359.5 Z"/></g>
<g><path style="opacity:0.452" fill="#2e2e2e" d="M 47.5,379.5 C 47.369,378.761 47.5357,378.094 48,377.5C 48.7386,380.573 50.5719,382.74 53.5,384C 94.1667,384.667 134.833,384.667 175.5,384C 180.726,379.749 180.726,375.415 175.5,371C 134.5,370.333 93.5,370.333 52.5,371C 50.1853,372.109 48.6853,373.943 48,376.5C 47.5357,375.906 47.369,375.239 47.5,374.5C 47.6263,371.405 49.293,369.572 52.5,369C 93.5,368.333 134.5,368.333 175.5,369C 181.627,371.754 183.46,376.254 181,382.5C 179.681,384.487 177.848,385.654 175.5,386C 134.833,386.667 94.1667,386.667 53.5,386C 49.9005,385.236 47.9005,383.07 47.5,379.5 Z"/></g>
<g><path style="opacity:0.043" fill="#656665" d="M 309.5,386.5 C 309.158,387.338 308.492,387.672 307.5,387.5C 307.409,385.302 308.075,384.969 309.5,386.5 Z"/></g>
<g><path style="opacity:0.043" fill="#656665" d="M 309.5,385.5 C 310.833,386.167 310.833,386.167 309.5,385.5 Z"/></g>
<g><path style="opacity:0.043" fill="#7e7e7e" d="M 299.5,386.5 C 300.959,386.433 302.292,386.766 303.5,387.5C 303.5,388.167 303.5,388.833 303.5,389.5C 302.221,390.968 300.554,391.635 298.5,391.5C 298.5,391.167 298.5,390.833 298.5,390.5C 299.167,390.5 299.5,390.167 299.5,389.5C 300.167,389.5 300.5,389.167 300.5,388.5C 300.167,387.833 299.833,387.167 299.5,386.5 Z"/></g>
<g><path style="opacity:0.043" fill="#656665" d="M 303.5,387.5 C 304.5,386.167 305.5,386.167 306.5,387.5C 305.833,388.167 305.167,388.833 304.5,389.5C 304.672,388.508 304.338,387.842 303.5,387.5 Z"/></g>
<g><path style="opacity:0.043" fill="#656665" d="M 306.5,387.5 C 306.833,387.5 307.167,387.5 307.5,387.5C 307.315,388.17 306.981,388.17 306.5,387.5 Z"/></g>
<g><path style="opacity:0.043" fill="#656665" d="M 303.5,389.5 C 303.833,389.5 304.167,389.5 304.5,389.5C 304.315,390.17 303.981,390.17 303.5,389.5 Z"/></g>
<g><path style="opacity:0.457" fill="#313131" d="M 425.5,380.5 C 425.938,380.435 426.272,380.601 426.5,381C 412.623,393.526 397.123,403.692 380,411.5C 379.536,410.906 379.369,410.239 379.5,409.5C 395.9,401.415 411.234,391.748 425.5,380.5 Z"/></g>
<g><path style="opacity:0.358" fill="#343434" d="M 428.5,400.5 C 414.813,411.485 399.813,420.485 383.5,427.5C 383.389,426.883 383.056,426.383 382.5,426C 389.833,422.333 397.167,418.667 404.5,415C 403.5,414.667 402.5,414.333 401.5,414C 410.382,411.883 418.382,407.55 425.5,401C 426.448,400.517 427.448,400.351 428.5,400.5 Z"/></g>
<g><path style="opacity:0.243" fill="#313131" d="M 381.5,428.5 C 367.315,434.451 352.648,438.784 337.5,441.5C 336.761,441.631 336.094,441.464 335.5,441C 350.906,437.889 365.906,433.056 380.5,426.5C 381.298,426.957 381.631,427.624 381.5,428.5 Z"/></g>
<g><path style="opacity:0.796" fill="#333333" d="M 377.5,410.5 C 378.738,410.81 378.738,411.31 377.5,412C 355.795,422.088 332.962,428.255 309,430.5C 257.648,430.519 206.148,430.186 154.5,429.5C 135.079,429.345 115.746,429.845 96.5,431C 95.5,432.667 94.5,434.333 93.5,436C 93.9726,440.804 96.6393,443.138 101.5,443C 173.346,443.822 245.18,443.656 317,442.5C 319.76,442.646 322.26,443.313 324.5,444.5C 311.263,444.918 298.097,445.585 285,446.5C 223.93,445.741 161.43,445.241 97.5,445C 91.3456,440.062 91.0123,434.728 96.5,429C 154.496,427.309 212.496,427.142 270.5,428.5C 307.658,430.807 343.324,424.807 377.5,410.5 Z"/></g>
</svg>
