<?xml version="1.0" encoding="UTF-8"?>
<!DOCTYPE svg PUBLIC "-//W3C//DTD SVG 1.1//EN" "http://www.w3.org/Graphics/SVG/1.1/DTD/svg11.dtd">
<svg xmlns="http://www.w3.org/2000/svg" version="1.1" width="800px" height="795px" style="shape-rendering:geometricPrecision; text-rendering:geometricPrecision; image-rendering:optimizeQuality; fill-rule:evenodd; clip-rule:evenodd" xmlns:xlink="http://www.w3.org/1999/xlink">
<g><path style="opacity:0.734" fill="#010101" d="M 90.5,438.5 C 92.5824,438.528 94.4157,437.861 96,436.5C 101.432,452.326 109.265,465.826 119.5,477C 119.167,477.333 118.833,477.667 118.5,478C 123.983,482.748 129.15,487.914 134,493.5C 134.333,493.167 134.667,492.833 135,492.5C 138.84,497.663 143.674,501.83 149.5,505C 150.833,505.667 150.833,506.333 149.5,507C 150.744,507.456 151.577,506.956 152,505.5C 153.36,507.105 154.86,508.605 156.5,510C 164.437,514.802 172.77,518.802 181.5,522C 182.126,522.75 182.626,523.584 183,524.5C 183.308,523.692 183.808,523.025 184.5,522.5C 186.815,523.234 188.648,524.568 190,526.5C 190.333,525.833 190.667,525.167 191,524.5C 194.269,525.984 197.602,527.318 201,528.5C 201.333,528.167 201.667,527.833 202,527.5C 207.368,528.675 212.701,530.009 218,531.5C 219.117,531.335 220.284,531.002 221.5,530.5C 227.751,532.749 233.918,532.749 240,530.5C 242.035,531.374 244.368,531.707 247,531.5C 248.333,528.833 249.667,528.833 251,531.5C 253.533,530.128 256.2,529.128 259,528.5C 265.829,528.064 272.662,526.564 279.5,524C 283.723,522.056 288.056,520.389 292.5,519C 295.14,518.104 297.307,516.604 299,514.5C 301.44,515.363 303.607,515.363 305.5,514.5C 307.276,513.685 307.943,512.518 307.5,511C 315.732,506.102 323.399,500.435 330.5,494C 331.448,493.517 332.448,493.351 333.5,493.5C 334.713,490.447 336.88,488.113 340,486.5C 355.847,468.175 367.013,448.675 373.5,428C 375.067,423.233 376.4,418.4 377.5,413.5C 377.818,412.353 378.484,411.519 379.5,411C 378.892,409.769 378.559,408.436 378.5,407C 379.231,402.843 379.898,398.677 380.5,394.5C 380.231,388.628 380.231,382.794 380.5,377C 379.34,363.541 376.84,350.707 373,338.5C 372.5,337.333 371.667,336.5 370.5,336C 371.624,335.751 372.624,335.251 373.5,334.5C 372.738,334.089 371.738,333.923 370.5,334C 370.833,333.667 371.167,333.333 371.5,333C 368.547,326.925 365.714,320.759 363,314.5C 354.315,299.92 343.649,286.586 331,274.5C 330.333,270.5 329.667,270.5 329,274.5C 327.167,271.333 324.667,268.833 321.5,267C 322.654,266.086 322.487,265.253 321,264.5C 320.282,265.451 319.449,265.617 318.5,265C 302.019,253.117 283.352,244.783 262.5,240C 250.547,238.125 238.38,236.958 226,236.5C 220.68,237.582 215.346,238.582 210,239.5C 208.853,238.542 207.853,238.875 207,240.5C 206.383,239.551 206.549,238.718 207.5,238C 206.5,237.333 205.5,237.333 204.5,238C 205.833,238.667 205.833,239.333 204.5,240C 200.229,240.903 196.063,242.07 192,243.5C 191.667,243.167 191.333,242.833 191,242.5C 187.343,244.22 183.843,246.22 180.5,248.5C 179.833,248.167 179.167,247.833 178.5,247.5C 164.572,254.054 151.739,261.721 140,270.5C 139.667,270.167 139.333,269.833 139,269.5C 135.559,274.027 130.559,279.36 124,285.5C 122.272,287.842 120.605,290.175 119,292.5C 117.412,294.088 115.412,296.088 113,298.5C 111.334,297.66 111.167,298.16 112.5,300C 110.455,302.586 108.789,305.42 107.5,308.5C 106.624,309.251 105.624,309.751 104.5,310C 106.709,310.957 106.543,312.124 104,313.5C 101.678,319.477 98.845,325.143 95.5,330.5C 94.2736,329.637 92.9403,329.637 91.5,330.5C 91.9305,321.303 95.7639,313.969 103,308.5C 104.31,300.848 107.81,294.348 113.5,289C 115.101,288.727 116.601,288.227 118,287.5C 118.29,285.048 118.956,282.715 120,280.5C 123.167,277.333 126.333,274.167 129.5,271C 131.804,270.105 134.138,269.271 136.5,268.5C 137.005,265.812 138.338,263.645 140.5,262C 144.5,259.333 148.5,256.667 152.5,254C 154.207,253.805 155.874,253.805 157.5,254C 161.933,248.605 167.6,244.939 174.5,243C 176.769,242.242 178.936,242.409 181,243.5C 186.747,237.8 193.747,234.8 202,234.5C 203.514,234.77 205.014,235.103 206.5,235.5C 213.647,231.789 221.314,230.622 229.5,232C 230.609,232.638 231.775,233.138 233,233.5C 242.237,230.544 251.237,231.21 260,235.5C 261.301,235.04 262.634,234.706 264,234.5C 292.125,236.438 320.292,237.605 348.5,238C 415.402,239.379 482.235,240.879 549,242.5C 550,242.167 551,241.833 552,241.5C 554.405,242.274 556.905,242.774 559.5,243C 475.633,245.484 391.633,247.818 307.5,250C 306.131,252.239 306.631,254.073 309,255.5C 309.739,254.426 310.739,253.759 312,253.5C 315.565,255.367 319.065,257.367 322.5,259.5C 339.79,258.806 355.957,258.473 371,258.5C 379.088,259.317 387.255,259.817 395.5,260C 393.236,260.236 391.069,260.736 389,261.5C 386.18,261.617 383.513,261.283 381,260.5C 362.573,261.327 344.073,261.827 325.5,262C 327.708,263.836 329.042,266.169 329.5,269C 332.633,268.954 335.3,269.954 337.5,272C 375.418,272.982 413.584,274.149 452,275.5C 475.678,275.489 499.011,275.489 522,275.5C 524.069,276.264 526.236,276.764 528.5,277C 526.236,277.236 524.069,277.736 522,278.5C 519.368,278.707 517.035,278.374 515,277.5C 458.941,278.408 403.108,279.741 347.5,281.5C 347.338,283.527 347.505,285.527 348,287.5C 350.28,288.086 352.447,288.92 354.5,290C 457.844,292.241 561.177,294.741 664.5,297.5C 565.125,299.963 465.125,302.463 364.5,305C 361.48,308.744 362.48,310.911 367.5,311.5C 368.752,313.001 369.752,314.668 370.5,316.5C 429.031,317.43 487.031,318.43 544.5,319.5C 545.086,319.291 545.586,318.957 546,318.5C 552.419,319.313 558.919,319.813 565.5,320C 503.007,320.715 439.34,321.382 374.5,322C 374.043,322.414 373.709,322.914 373.5,323.5C 375.501,326.632 376.001,329.965 375,333.5C 377.596,335.02 380.429,335.853 383.5,336C 445.309,338.379 507.142,339.879 569,340.5C 576.956,340.364 584.622,340.03 592,339.5C 595.005,339.481 597.838,340.148 600.5,341.5C 528.166,343.27 455.833,345.103 383.5,347C 382.477,349.774 382.477,352.607 383.5,355.5C 448.396,356.531 513.23,357.531 578,358.5C 588.482,358.729 598.482,358.396 608,357.5C 610.069,358.264 612.236,358.764 614.5,359C 540.079,359.963 463.746,361.129 385.5,362.5C 385.232,365.119 385.565,367.619 386.5,370C 482.844,373.507 579.01,375.674 675,376.5C 681.085,377.312 687.252,377.812 693.5,378C 689.351,379.269 685.018,379.935 680.5,380C 582.814,381.547 485.147,383.88 387.5,387C 385.591,391.592 385.257,396.258 386.5,401C 436.816,402.879 487.149,404.213 537.5,405C 529.203,406.072 520.87,406.739 512.5,407C 468.813,407.54 425.146,408.706 381.5,410.5C 381.852,413.428 382.518,416.262 383.5,419C 472.637,419.761 562.97,420.595 654.5,421.5C 630.935,422.171 607.435,422.838 584,423.5C 530.147,423.402 474.481,423.402 417,423.5C 405.242,424.322 393.409,424.822 381.5,425C 379.529,427.865 378.863,430.865 379.5,434C 463.577,436.09 547.577,438.423 631.5,441C 545.184,443.405 458.851,445.738 372.5,448C 370.33,450.803 369.663,453.803 370.5,457C 412.511,458.667 454.511,460.334 496.5,462C 494.236,462.236 492.069,462.736 490,463.5C 447.688,464.378 405.188,465.878 362.5,468C 359.96,470.205 357.793,472.705 356,475.5C 355.383,476.449 355.549,477.282 356.5,478C 427.866,479.989 499.033,481.489 570,482.5C 570.75,483.126 571.584,483.626 572.5,484C 565.919,484.187 559.419,484.687 553,485.5C 551.333,485.167 549.667,484.833 548,484.5C 479.878,485.794 411.712,487.627 343.5,490C 341.533,492.436 339.866,494.936 338.5,497.5C 433.924,499.76 529.09,502.093 624,504.5C 625.667,504.167 627.333,503.833 629,503.5C 632.745,504.297 636.579,504.797 640.5,505C 635.582,505.195 630.749,505.695 626,506.5C 603.123,506.485 579.956,506.485 556.5,506.5C 477.527,509.128 398.527,511.295 319.5,513C 315.531,513.853 311.531,514.519 307.5,515C 306.237,516.705 305.903,518.372 306.5,520C 369.483,522.19 432.483,523.857 495.5,525C 496.833,525.667 496.833,526.333 495.5,527C 421.511,529.315 347.511,531.315 273.5,533C 268.167,533.333 262.833,533.667 257.5,534C 252.356,535.926 247.022,537.092 241.5,537.5C 238.435,537.029 235.602,536.029 233,534.5C 217.281,537.072 201.781,535.572 186.5,530C 184.5,529.333 183.167,528 182.5,526C 180.623,525.424 178.789,525.591 177,526.5C 171.322,524.411 165.822,521.911 160.5,519C 158.741,515.376 155.741,513.709 151.5,514C 147.167,511 142.833,508 138.5,505C 137.76,503.215 137.093,501.382 136.5,499.5C 134.577,498.692 132.577,498.192 130.5,498C 127,494.5 123.5,491 120,487.5C 119.027,485.608 118.36,483.608 118,481.5C 109.529,476.524 104.363,469.191 102.5,459.5C 101.086,458.376 99.586,457.376 98,456.5C 94.653,450.812 92.153,444.812 90.5,438.5 Z"/></g>
<g><path style="opacity:1" fill="#0b0a0a" d="M 90.5,438.5 C 89.6618,438.158 89.3284,437.492 89.5,436.5C 93.1655,437.448 93.4989,436.448 90.5,433.5C 89.7025,433.957 89.3691,434.624 89.5,435.5C 86.1065,428.638 84.1065,421.304 83.5,413.5C 85.256,412.448 85.9227,410.781 85.5,408.5C 84.5,408.5 83.5,408.5 82.5,408.5C 80.0237,400.26 80.0237,392.093 82.5,384C 79.9924,376.14 79.9924,368.306 82.5,360.5C 83.5,360.5 84.5,360.5 85.5,360.5C 85.9227,358.219 85.256,356.552 83.5,355.5C 83.8732,346.31 86.5399,337.977 91.5,330.5C 92.9403,329.637 94.2736,329.637 95.5,330.5C 98.845,325.143 101.678,319.477 104,313.5C 106.543,312.124 106.709,310.957 104.5,310C 105.624,309.751 106.624,309.251 107.5,308.5C 108.789,305.42 110.455,302.586 112.5,300C 111.167,298.16 111.334,297.66 113,298.5C 115.412,296.088 117.412,294.088 119,292.5C 120.605,290.175 122.272,287.842 124,285.5C 130.559,279.36 135.559,274.027 139,269.5C 139.333,269.833 139.667,270.167 140,270.5C 151.739,261.721 164.572,254.054 178.5,247.5C 179.167,247.833 179.833,248.167 180.5,248.5C 183.843,246.22 187.343,244.22 191,242.5C 191.333,242.833 191.667,243.167 192,243.5C 196.063,242.07 200.229,240.903 204.5,240C 205.833,239.333 205.833,238.667 204.5,238C 205.5,237.333 206.5,237.333 207.5,238C 206.549,238.718 206.383,239.551 207,240.5C 207.853,238.875 208.853,238.542 210,239.5C 215.346,238.582 220.68,237.582 226,236.5C 238.38,236.958 250.547,238.125 262.5,240C 283.352,244.783 302.019,253.117 318.5,265C 319.449,265.617 320.282,265.451 321,264.5C 322.487,265.253 322.654,266.086 321.5,267C 324.667,268.833 327.167,271.333 329,274.5C 329.667,270.5 330.333,270.5 331,274.5C 343.649,286.586 354.315,299.92 363,314.5C 365.714,320.759 368.547,326.925 371.5,333C 371.167,333.333 370.833,333.667 370.5,334C 371.738,333.923 372.738,334.089 373.5,334.5C 372.624,335.251 371.624,335.751 370.5,336C 371.667,336.5 372.5,337.333 373,338.5C 376.84,350.707 379.34,363.541 380.5,377C 380.231,382.794 380.231,388.628 380.5,394.5C 379.898,398.677 379.231,402.843 378.5,407C 378.559,408.436 378.892,409.769 379.5,411C 378.484,411.519 377.818,412.353 377.5,413.5C 376.4,418.4 375.067,423.233 373.5,428C 367.013,448.675 355.847,468.175 340,486.5C 336.88,488.113 334.713,490.447 333.5,493.5C 332.448,493.351 331.448,493.517 330.5,494C 323.399,500.435 315.732,506.102 307.5,511C 307.943,512.518 307.276,513.685 305.5,514.5C 303.607,515.363 301.44,515.363 299,514.5C 297.307,516.604 295.14,518.104 292.5,519C 288.056,520.389 283.723,522.056 279.5,524C 272.662,526.564 265.829,528.064 259,528.5C 256.2,529.128 253.533,530.128 251,531.5C 249.667,528.833 248.333,528.833 247,531.5C 244.368,531.707 242.035,531.374 240,530.5C 233.918,532.749 227.751,532.749 221.5,530.5C 220.284,531.002 219.117,531.335 218,531.5C 212.701,530.009 207.368,528.675 202,527.5C 201.667,527.833 201.333,528.167 201,528.5C 197.602,527.318 194.269,525.984 191,524.5C 190.667,525.167 190.333,525.833 190,526.5C 188.648,524.568 186.815,523.234 184.5,522.5C 183.808,523.025 183.308,523.692 183,524.5C 182.626,523.584 182.126,522.75 181.5,522C 172.77,518.802 164.437,514.802 156.5,510C 154.86,508.605 153.36,507.105 152,505.5C 151.577,506.956 150.744,507.456 149.5,507C 150.833,506.333 150.833,505.667 149.5,505C 143.674,501.83 138.84,497.663 135,492.5C 134.667,492.833 134.333,493.167 134,493.5C 129.15,487.914 123.983,482.748 118.5,478C 118.833,477.667 119.167,477.333 119.5,477C 109.265,465.826 101.432,452.326 96,436.5C 94.4157,437.861 92.5824,438.528 90.5,438.5 Z M 224.5,278.5 C 224.833,279.167 225.167,279.833 225.5,280.5C 175.976,287.526 144.809,315.193 132,363.5C 124.968,408.58 139.802,444.413 176.5,471C 194.366,481.565 213.699,487.399 234.5,488.5C 234.5,489.167 234.5,489.833 234.5,490.5C 192.235,490.029 160.402,471.696 139,435.5C 115.526,384.792 124.026,340.292 164.5,302C 181.905,287.586 201.905,279.753 224.5,278.5 Z M 244.5,288.5 C 211.203,288.198 183.37,300.198 161,324.5C 137.732,355.645 133.398,389.312 148,425.5C 151.558,433.851 156.058,441.518 161.5,448.5C 155.859,444.277 151.359,438.944 148,432.5C 126.822,391.975 130.488,353.975 159,318.5C 182.346,293 210.846,283 244.5,288.5 Z M 277.5,287.5 C 285.548,290.359 292.881,294.525 299.5,300C 341.506,337.865 351.006,382.698 328,434.5C 310.608,464.725 284.774,483.059 250.5,489.5C 249.167,489.5 248.5,488.833 248.5,487.5C 295.037,477.129 323.871,448.796 335,402.5C 340.526,358.745 325.692,323.911 290.5,298C 286.606,295.554 282.606,293.388 278.5,291.5C 277.766,290.292 277.433,288.959 277.5,287.5 Z M 224.5,298.5 C 237.508,298.042 250.175,299.876 262.5,304C 262.957,304.414 263.291,304.914 263.5,305.5C 253.511,315.322 243.344,324.988 233,334.5C 222.656,324.988 212.489,315.322 202.5,305.5C 203.381,304.029 204.714,303.196 206.5,303C 212.581,301.29 218.581,299.79 224.5,298.5 Z M 285.5,317.5 C 303.315,331.11 313.982,349.11 317.5,371.5C 303.73,368.41 290.23,364.41 277,359.5C 279.185,345.417 282.019,331.417 285.5,317.5 Z M 178.5,318.5 C 179.376,318.369 180.043,318.702 180.5,319.5C 184.047,331.857 187.047,344.357 189.5,357C 189.167,357.833 188.833,358.667 188.5,359.5C 175.457,364.515 162.124,368.515 148.5,371.5C 152.066,350.018 162.066,332.352 178.5,318.5 Z M 194.5,318.5 C 202.595,324.33 210.095,330.996 217,338.5C 217.667,339.167 217.667,339.833 217,340.5C 211.856,343.491 206.69,345.991 201.5,348C 198.851,338.258 196.518,328.424 194.5,318.5 Z M 269.5,318.5 C 270.586,318.62 271.253,319.287 271.5,320.5C 269.397,329.515 267.23,338.515 265,347.5C 264.586,347.957 264.086,348.291 263.5,348.5C 258.266,345.724 253.266,342.724 248.5,339.5C 255.827,332.839 262.827,325.839 269.5,318.5 Z M 220.5,361.5 C 226.488,361.664 227.821,364.164 224.5,369C 218.403,369.147 217.07,366.647 220.5,361.5 Z M 242.5,361.5 C 245.272,361.595 247.272,362.929 248.5,365.5C 246.422,369.729 243.589,370.395 240,367.5C 239.458,364.918 240.292,362.918 242.5,361.5 Z M 184.5,374.5 C 185.458,374.953 186.292,375.619 187,376.5C 187.499,382.157 187.666,387.824 187.5,393.5C 177.26,391.309 167.26,388.309 157.5,384.5C 157.709,383.914 158.043,383.414 158.5,383C 167.381,380.455 176.048,377.621 184.5,374.5 Z M 280.5,374.5 C 290.175,377.558 299.842,380.725 309.5,384C 299.751,387.86 289.751,391.027 279.5,393.5C 279.209,387.077 279.542,380.744 280.5,374.5 Z M 209.5,380.5 C 215.488,380.664 216.821,383.164 213.5,388C 207.812,387.79 206.479,385.29 209.5,380.5 Z M 252.5,380.5 C 258.704,380.314 260.037,382.814 256.5,388C 250.403,388.147 249.07,385.647 252.5,380.5 Z M 148.5,396.5 C 162.292,399.988 175.792,404.322 189,409.5C 187.658,420.22 185.658,430.886 183,441.5C 182.284,444.72 181.117,447.72 179.5,450.5C 162.437,436.374 152.103,418.374 148.5,396.5 Z M 312.5,397.5 C 314.167,397.5 315.833,397.5 317.5,397.5C 314.115,419.276 303.782,436.942 286.5,450.5C 282.401,437.771 279.067,424.771 276.5,411.5C 277.885,409.295 279.885,407.795 282.5,407C 292.644,403.895 302.644,400.728 312.5,397.5 Z M 221.5,398.5 C 227.6,400.812 227.934,403.812 222.5,407.5C 217.707,404.738 217.374,401.738 221.5,398.5 Z M 242.5,398.5 C 247.012,398.869 248.512,401.202 247,405.5C 243.458,408.327 240.958,407.493 239.5,403C 240.315,401.357 241.315,399.857 242.5,398.5 Z M 195.5,449.5 C 195.389,448.883 195.056,448.383 194.5,448C 196.729,438.341 199.396,428.841 202.5,419.5C 207.5,422.667 212.5,425.833 217.5,429C 210.598,436.406 203.265,443.239 195.5,449.5 Z M 262.5,419.5 C 263.376,419.369 264.043,419.702 264.5,420.5C 266.96,429.464 269.293,438.464 271.5,447.5C 271.192,448.308 270.692,448.975 270,449.5C 262.683,443.017 255.516,436.35 248.5,429.5C 253.196,426.157 257.863,422.824 262.5,419.5 Z M 232.5,434.5 C 243.057,442.715 253.057,451.715 262.5,461.5C 263.833,462.5 263.833,463.5 262.5,464.5C 242.837,471.136 223.17,471.136 203.5,464.5C 202.479,463.998 202.312,463.332 203,462.5C 213.031,453.3 222.865,443.967 232.5,434.5 Z"/></g>
<g><path style="opacity:1" fill="#141212" d="M 230.5,240.5 C 232.049,240.736 233.549,240.736 235,240.5C 235.667,241.167 236.333,241.833 237,242.5C 240.765,241.81 244.432,241.476 248,241.5C 248.667,242.167 249.333,242.833 250,243.5C 253.254,242.641 256.254,242.307 259,242.5C 260.324,243.88 261.657,244.214 263,243.5C 264,244.5 265,245.5 266,246.5C 267,246.167 268,245.833 269,245.5C 270.943,246.315 272.943,247.315 275,248.5C 276,248.167 277,247.833 278,247.5C 278.317,249.301 278.984,249.634 280,248.5C 281.667,249.5 283.333,250.5 285,251.5C 285.333,251.167 285.667,250.833 286,250.5C 286.419,251.672 287.085,252.672 288,253.5C 289.808,253.112 291.475,253.112 293,253.5C 293.442,255.679 294.442,256.345 296,255.5C 300.115,258.003 303.781,260.336 307,262.5C 307.333,262.167 307.667,261.833 308,261.5C 309.667,263.167 311.333,264.833 313,266.5C 314.558,265.655 315.558,266.321 316,268.5C 316.333,268.167 316.667,267.833 317,267.5C 318.214,269.049 319.714,270.215 321.5,271C 321.167,271.333 320.833,271.667 320.5,272C 325.804,275.312 330.804,278.979 335.5,283C 337.723,287.318 341.056,291.318 345.5,295C 347.073,298.346 349.407,301.679 352.5,305C 352.167,305.333 351.833,305.667 351.5,306C 354.539,308.452 356.873,311.452 358.5,315C 358.167,315.333 357.833,315.667 357.5,316C 361.453,319.283 363.453,323.283 363.5,328C 365.301,328.317 365.634,328.984 364.5,330C 365.1,331.676 366.433,333.343 368.5,335C 367.833,335.333 367.167,335.667 366.5,336C 368.581,338.213 369.915,340.88 370.5,344C 368.859,345.646 369.193,346.646 371.5,347C 371.167,347.333 370.833,347.667 370.5,348C 371.155,350.591 372.155,353.258 373.5,356C 371.859,357.646 372.193,358.646 374.5,359C 374.167,360.667 373.833,362.333 373.5,364C 376.167,364.667 376.167,365.333 373.5,366C 374.167,366.333 374.833,366.667 375.5,367C 375.507,368.583 375.174,370.249 374.5,372C 375.167,372.333 375.833,372.667 376.5,373C 375.969,379.743 375.969,387.076 376.5,395C 373.833,395.667 373.833,396.333 376.5,397C 373.833,397.667 373.833,398.333 376.5,399C 374.431,399.324 374.098,400.158 375.5,401.5C 374.926,403.059 374.26,404.559 373.5,406C 373.607,409.065 373.607,412.065 373.5,415C 372.87,416.892 371.87,418.559 370.5,420C 370.833,421 371.167,422 371.5,423C 370.833,423.333 370.167,423.667 369.5,424C 369.5,425.667 369.5,427.333 369.5,429C 363.924,443.76 355.757,458.593 345,473.5C 342.061,477.527 338.561,481.027 334.5,484C 334.833,484.333 335.167,484.667 335.5,485C 332.308,488.141 328.308,491.141 323.5,494C 323.833,494.333 324.167,494.667 324.5,495C 317.784,499.805 311.284,504.305 305,508.5C 303.434,507.939 302.101,508.606 301,510.5C 299.984,509.366 299.317,509.699 299,511.5C 297.434,510.939 296.101,511.606 295,513.5C 294.667,513.167 294.333,512.833 294,512.5C 291.425,513.896 288.758,515.563 286,517.5C 284.667,517.5 283.333,517.5 282,517.5C 281.667,518.167 281.333,518.833 281,519.5C 279.333,519.5 277.667,519.5 276,519.5C 272.13,520.787 268.464,522.453 265,524.5C 263.602,523.949 262.268,523.616 261,523.5C 260.333,526.167 259.667,526.167 259,523.5C 256.91,524.794 254.91,525.794 253,526.5C 248.71,527.081 244.21,527.081 239.5,526.5C 238.522,526.977 237.689,527.643 237,528.5C 235,527.167 233,527.167 231,528.5C 229.691,526.109 228.691,526.109 228,528.5C 227,527.5 226,526.5 225,525.5C 223.402,527.509 221.402,527.509 219,525.5C 217.176,526.238 215.176,526.572 213,526.5C 212.333,525.833 211.667,525.167 211,524.5C 208.889,524.577 206.889,524.911 205,525.5C 204.333,524.833 203.667,524.167 203,523.5C 201.667,523.5 200.333,523.5 199,523.5C 198.309,521.109 197.309,521.109 196,523.5C 194.54,520.79 192.54,520.124 190,521.5C 189,520.5 188,519.5 187,518.5C 185.667,518.5 184.333,518.5 183,518.5C 182.683,516.699 182.016,516.366 181,517.5C 179.333,516.5 177.667,515.5 176,514.5C 175.667,514.833 175.333,515.167 175,515.5C 172.147,512.186 168.814,510.519 165,510.5C 164.085,509.672 163.419,508.672 163,507.5C 161.984,508.634 161.317,508.301 161,506.5C 160,506.5 159,506.5 158,506.5C 139.79,493.276 124.623,478.443 112.5,462C 112.5,461 112.5,460 112.5,459C 110.5,457.676 108.833,456.009 107.5,454C 108.634,452.984 108.301,452.317 106.5,452C 107.634,450.984 107.301,450.317 105.5,450C 105.833,449.667 106.167,449.333 106.5,449C 105.9,447.324 104.567,445.657 102.5,444C 102.833,443.667 103.167,443.333 103.5,443C 101.641,439.568 99.9739,436.568 98.5,434C 98.5,432.333 98.5,430.667 98.5,429C 96.6992,428.683 96.3659,428.016 97.5,427C 95.6805,424.395 95.0138,421.728 95.5,419C 94.1996,413.513 92.5329,407.846 90.5,402C 90.8181,397.842 90.8181,393.009 90.5,387.5C 86.6893,387.404 86.6893,386.738 90.5,385.5C 90.2907,384.914 89.9574,384.414 89.5,384C 90.3089,378.583 90.8089,373.083 91,367.5C 91.5,367 92,366.5 92.5,366C 91.9491,364.602 91.6158,363.268 91.5,362C 92.1667,361.333 92.8333,360.667 93.5,360C 92.9491,358.602 92.6158,357.268 92.5,356C 93.1667,355.667 93.8333,355.333 94.5,355C 94.2394,352.26 94.2394,349.594 94.5,347C 95.3854,344.559 96.7188,341.893 98.5,339C 97.3659,337.984 97.6992,337.317 99.5,337C 98.8333,336.667 98.1667,336.333 97.5,336C 99.5669,334.343 100.9,332.676 101.5,331C 100.833,330.667 100.167,330.333 99.5,330C 101.167,328.333 102.833,326.667 104.5,325C 104.112,323.192 104.112,321.525 104.5,320C 105.833,319 107.167,318 108.5,317C 106.122,316.026 106.456,315.359 109.5,315C 108.701,313.251 109.368,311.918 111.5,311C 111.167,310.667 110.833,310.333 110.5,310C 111.728,307.86 113.395,306.193 115.5,305C 115.68,301.42 117.68,298.753 121.5,297C 120.167,295.16 120.334,294.66 122,295.5C 124.488,290.653 128.321,286.486 133.5,283C 133.167,282.667 132.833,282.333 132.5,282C 138.867,276.391 145.367,270.891 152,265.5C 152.333,265.833 152.667,266.167 153,266.5C 159.28,263.511 164.946,259.844 170,255.5C 170.333,255.833 170.667,256.167 171,256.5C 172.243,254.167 173.909,253.5 176,254.5C 177.012,252.136 178.345,250.802 180,250.5C 181.147,251.458 182.147,251.125 183,249.5C 183.333,249.833 183.667,250.167 184,250.5C 185.929,249.821 187.929,248.821 190,247.5C 191.649,248.898 192.982,248.564 194,246.5C 195.147,247.458 196.147,247.125 197,245.5C 197.333,245.833 197.667,246.167 198,246.5C 199.91,245.794 201.91,244.794 204,243.5C 205,243.833 206,244.167 207,244.5C 207.667,241.833 208.333,241.833 209,244.5C 209.333,243.833 209.667,243.167 210,242.5C 216.064,241.567 222.397,241.567 229,242.5C 229.717,241.956 230.217,241.289 230.5,240.5 Z M 224.5,278.5 C 224.833,279.167 225.167,279.833 225.5,280.5C 175.976,287.526 144.809,315.193 132,363.5C 124.968,408.58 139.802,444.413 176.5,471C 194.366,481.565 213.699,487.399 234.5,488.5C 234.5,489.167 234.5,489.833 234.5,490.5C 192.235,490.029 160.402,471.696 139,435.5C 115.526,384.792 124.026,340.292 164.5,302C 181.905,287.586 201.905,279.753 224.5,278.5 Z M 244.5,288.5 C 211.203,288.198 183.37,300.198 161,324.5C 137.732,355.645 133.398,389.312 148,425.5C 151.558,433.851 156.058,441.518 161.5,448.5C 155.859,444.277 151.359,438.944 148,432.5C 126.822,391.975 130.488,353.975 159,318.5C 182.346,293 210.846,283 244.5,288.5 Z M 277.5,287.5 C 285.548,290.359 292.881,294.525 299.5,300C 341.506,337.865 351.006,382.698 328,434.5C 310.608,464.725 284.774,483.059 250.5,489.5C 249.167,489.5 248.5,488.833 248.5,487.5C 295.037,477.129 323.871,448.796 335,402.5C 340.526,358.745 325.692,323.911 290.5,298C 286.606,295.554 282.606,293.388 278.5,291.5C 277.766,290.292 277.433,288.959 277.5,287.5 Z M 224.5,298.5 C 218.581,299.79 212.581,301.29 206.5,303C 204.714,303.196 203.381,304.029 202.5,305.5C 212.489,315.322 222.656,324.988 233,334.5C 243.344,324.988 253.511,315.322 263.5,305.5C 263.291,304.914 262.957,304.414 262.5,304C 250.175,299.876 237.508,298.042 224.5,298.5 Z M 285.5,317.5 C 282.019,331.417 279.185,345.417 277,359.5C 290.23,364.41 303.73,368.41 317.5,371.5C 313.982,349.11 303.315,331.11 285.5,317.5 Z M 178.5,318.5 C 162.066,332.352 152.066,350.018 148.5,371.5C 162.124,368.515 175.457,364.515 188.5,359.5C 188.833,358.667 189.167,357.833 189.5,357C 187.047,344.357 184.047,331.857 180.5,319.5C 180.043,318.702 179.376,318.369 178.5,318.5 Z M 194.5,318.5 C 196.518,328.424 198.851,338.258 201.5,348C 206.69,345.991 211.856,343.491 217,340.5C 217.667,339.833 217.667,339.167 217,338.5C 210.095,330.996 202.595,324.33 194.5,318.5 Z M 269.5,318.5 C 262.827,325.839 255.827,332.839 248.5,339.5C 253.266,342.724 258.266,345.724 263.5,348.5C 264.086,348.291 264.586,347.957 265,347.5C 267.23,338.515 269.397,329.515 271.5,320.5C 271.253,319.287 270.586,318.62 269.5,318.5 Z M 220.5,361.5 C 217.07,366.647 218.403,369.147 224.5,369C 227.821,364.164 226.488,361.664 220.5,361.5 Z M 242.5,361.5 C 240.292,362.918 239.458,364.918 240,367.5C 243.589,370.395 246.422,369.729 248.5,365.5C 247.272,362.929 245.272,361.595 242.5,361.5 Z M 184.5,374.5 C 176.048,377.621 167.381,380.455 158.5,383C 158.043,383.414 157.709,383.914 157.5,384.5C 167.26,388.309 177.26,391.309 187.5,393.5C 187.666,387.824 187.499,382.157 187,376.5C 186.292,375.619 185.458,374.953 184.5,374.5 Z M 280.5,374.5 C 279.542,380.744 279.209,387.077 279.5,393.5C 289.751,391.027 299.751,387.86 309.5,384C 299.842,380.725 290.175,377.558 280.5,374.5 Z M 209.5,380.5 C 206.479,385.29 207.812,387.79 213.5,388C 216.821,383.164 215.488,380.664 209.5,380.5 Z M 252.5,380.5 C 249.07,385.647 250.403,388.147 256.5,388C 260.037,382.814 258.704,380.314 252.5,380.5 Z M 148.5,396.5 C 152.103,418.374 162.437,436.374 179.5,450.5C 181.117,447.72 182.284,444.72 183,441.5C 185.658,430.886 187.658,420.22 189,409.5C 175.792,404.322 162.292,399.988 148.5,396.5 Z M 312.5,397.5 C 302.644,400.728 292.644,403.895 282.5,407C 279.885,407.795 277.885,409.295 276.5,411.5C 279.067,424.771 282.401,437.771 286.5,450.5C 303.782,436.942 314.115,419.276 317.5,397.5C 315.833,397.5 314.167,397.5 312.5,397.5 Z M 221.5,398.5 C 217.374,401.738 217.707,404.738 222.5,407.5C 227.934,403.812 227.6,400.812 221.5,398.5 Z M 242.5,398.5 C 241.315,399.857 240.315,401.357 239.5,403C 240.958,407.493 243.458,408.327 247,405.5C 248.512,401.202 247.012,398.869 242.5,398.5 Z M 195.5,449.5 C 203.265,443.239 210.598,436.406 217.5,429C 212.5,425.833 207.5,422.667 202.5,419.5C 199.396,428.841 196.729,438.341 194.5,448C 195.056,448.383 195.389,448.883 195.5,449.5 Z M 262.5,419.5 C 257.863,422.824 253.196,426.157 248.5,429.5C 255.516,436.35 262.683,443.017 270,449.5C 270.692,448.975 271.192,448.308 271.5,447.5C 269.293,438.464 266.96,429.464 264.5,420.5C 264.043,419.702 263.376,419.369 262.5,419.5 Z M 232.5,434.5 C 222.865,443.967 213.031,453.3 203,462.5C 202.312,463.332 202.479,463.998 203.5,464.5C 223.17,471.136 242.837,471.136 262.5,464.5C 263.833,463.5 263.833,462.5 262.5,461.5C 253.057,451.715 243.057,442.715 232.5,434.5 Z"/></g>
<g><path style="opacity:1" fill="#1d191a" d="M 224.5,245.5 C 226.068,247.931 227.568,247.931 229,245.5C 233.667,246.833 238.333,246.833 243,245.5C 243.333,246.167 243.667,246.833 244,247.5C 245.751,246.826 247.417,246.493 249,246.5C 249.667,249.167 250.333,249.167 251,246.5C 251.333,247.167 251.667,247.833 252,248.5C 254.751,248.042 257.751,248.042 261,248.5C 262.555,250.146 264.221,250.479 266,249.5C 268.307,251.608 270.64,252.941 273,253.5C 275.478,254.447 277.812,254.447 280,253.5C 281,254.5 282,255.5 283,256.5C 284,256.167 285,255.833 286,255.5C 289.034,256.761 292.034,258.761 295,261.5C 295.333,261.167 295.667,260.833 296,260.5C 297.53,261.636 298.863,262.636 300,263.5C 308.854,267.674 316.854,273.674 324,281.5C 324.333,281.167 324.667,280.833 325,280.5C 329.113,284.789 333.279,288.956 337.5,293C 337.167,293.333 336.833,293.667 336.5,294C 337.667,295.167 338.833,296.333 340,297.5C 340.333,297.167 340.667,296.833 341,296.5C 343.36,301.063 346.86,305.896 351.5,311C 351.167,311.333 350.833,311.667 350.5,312C 353.167,315.667 355.833,319.333 358.5,323C 357.878,325.754 358.878,328.087 361.5,330C 360.939,331.566 361.606,332.899 363.5,334C 363.043,334.414 362.709,334.914 362.5,335.5C 364.252,338.32 364.918,341.154 364.5,344C 365.167,344.333 365.833,344.667 366.5,345C 367.447,347.478 367.447,349.812 366.5,352C 367.167,352.333 367.833,352.667 368.5,353C 368.167,354 367.833,355 367.5,356C 370.167,356.667 370.167,357.333 367.5,358C 368.167,358.333 368.833,358.667 369.5,359C 369.888,362.14 369.888,365.14 369.5,368C 370.167,369 370.833,370 371.5,371C 371.766,379.133 371.766,387.799 371.5,397C 370.833,398 370.167,399 369.5,400C 369.833,401.667 370.167,403.333 370.5,405C 368.479,407.043 368.146,409.043 369.5,411C 368.833,412.667 368.167,414.333 367.5,416C 367.833,416.333 368.167,416.667 368.5,417C 366.606,418.079 366.273,419.413 367.5,421C 365.699,421.317 365.366,421.984 366.5,423C 364.8,427.926 362.8,432.76 360.5,437.5C 361.609,438.965 361.109,439.965 359,440.5C 358.383,441.449 358.549,442.282 359.5,443C 358.5,444 357.5,445 356.5,446C 356.833,446.333 357.167,446.667 357.5,447C 355.833,448.667 354.167,450.333 352.5,452C 352.5,453 352.5,454 352.5,455C 347.283,462.793 342.117,469.96 337,476.5C 336.667,476.167 336.333,475.833 336,475.5C 335.5,476.667 334.667,477.5 333.5,478C 333.833,478.333 334.167,478.667 334.5,479C 317.023,496.995 295.189,510.162 269,518.5C 267.657,517.786 266.324,518.12 265,519.5C 262.667,519.5 260.333,519.5 258,519.5C 255.467,520.872 252.8,521.872 250,522.5C 239.274,522.473 228.607,522.473 218,522.5C 217,521.833 216,521.167 215,520.5C 211.667,520.5 208.333,520.5 205,520.5C 202.395,518.68 199.728,518.014 197,518.5C 196.333,517.833 195.667,517.167 195,516.5C 193.333,516.5 191.667,516.5 190,516.5C 188.54,514.578 186.873,513.911 185,514.5C 180.894,511.884 176.06,509.718 170.5,508C 136.161,489.009 112.827,461.009 100.5,424C 101.634,422.984 101.301,422.317 99.5,422C 100.634,420.984 100.301,420.317 98.5,420C 98.8333,419 99.1667,418 99.5,417C 98.1667,412.667 96.8333,408.333 95.5,404C 96.4074,400.981 96.0741,397.648 94.5,394C 94.9043,388.465 94.9043,382.465 94.5,376C 96.1301,371.741 96.4634,367.741 95.5,364C 96.7404,360.251 98.0738,356.585 99.5,353C 98.9783,350.519 98.9783,348.186 99.5,346C 100.5,345 101.5,344 102.5,343C 102.167,342 101.833,341 101.5,340C 102.5,339 103.5,338 104.5,337C 104.5,335.333 104.5,333.667 104.5,332C 106.486,328.365 108.486,324.698 110.5,321C 110.167,320.667 109.833,320.333 109.5,320C 114.759,312.432 120.259,304.599 126,296.5C 131.536,289.313 138.369,282.813 146.5,277C 145.346,276.086 145.513,275.253 147,274.5C 147.333,274.833 147.667,275.167 148,275.5C 150.104,273.262 152.438,272.262 155,272.5C 155.503,270.385 156.836,268.385 159,266.5C 160.525,266.112 162.192,266.112 164,266.5C 165.025,263.698 167.359,261.698 171,260.5C 171.333,260.833 171.667,261.167 172,261.5C 175.921,258.233 179.921,255.9 184,254.5C 185.765,253.761 187.765,253.761 190,254.5C 190.915,253.672 191.581,252.672 192,251.5C 192.333,251.833 192.667,252.167 193,252.5C 194.667,251.5 196.333,250.5 198,249.5C 199.779,250.479 201.445,250.146 203,248.5C 204.957,249.854 206.957,249.521 209,247.5C 211.035,248.374 213.368,248.707 216,248.5C 216.667,247.833 217.333,247.167 218,246.5C 219.583,246.493 221.249,246.826 223,247.5C 223.717,246.956 224.217,246.289 224.5,245.5 Z M 224.5,278.5 C 224.833,279.167 225.167,279.833 225.5,280.5C 175.976,287.526 144.809,315.193 132,363.5C 124.968,408.58 139.802,444.413 176.5,471C 194.366,481.565 213.699,487.399 234.5,488.5C 234.5,489.167 234.5,489.833 234.5,490.5C 192.235,490.029 160.402,471.696 139,435.5C 115.526,384.792 124.026,340.292 164.5,302C 181.905,287.586 201.905,279.753 224.5,278.5 Z M 244.5,288.5 C 211.203,288.198 183.37,300.198 161,324.5C 137.732,355.645 133.398,389.312 148,425.5C 151.558,433.851 156.058,441.518 161.5,448.5C 155.859,444.277 151.359,438.944 148,432.5C 126.822,391.975 130.488,353.975 159,318.5C 182.346,293 210.846,283 244.5,288.5 Z M 277.5,287.5 C 285.548,290.359 292.881,294.525 299.5,300C 341.506,337.865 351.006,382.698 328,434.5C 310.608,464.725 284.774,483.059 250.5,489.5C 249.167,489.5 248.5,488.833 248.5,487.5C 295.037,477.129 323.871,448.796 335,402.5C 340.526,358.745 325.692,323.911 290.5,298C 286.606,295.554 282.606,293.388 278.5,291.5C 277.766,290.292 277.433,288.959 277.5,287.5 Z M 224.5,298.5 C 218.581,299.79 212.581,301.29 206.5,303C 204.714,303.196 203.381,304.029 202.5,305.5C 212.489,315.322 222.656,324.988 233,334.5C 243.344,324.988 253.511,315.322 263.5,305.5C 263.291,304.914 262.957,304.414 262.5,304C 250.175,299.876 237.508,298.042 224.5,298.5 Z M 285.5,317.5 C 282.019,331.417 279.185,345.417 277,359.5C 290.23,364.41 303.73,368.41 317.5,371.5C 313.982,349.11 303.315,331.11 285.5,317.5 Z M 178.5,318.5 C 162.066,332.352 152.066,350.018 148.5,371.5C 162.124,368.515 175.457,364.515 188.5,359.5C 188.833,358.667 189.167,357.833 189.5,357C 187.047,344.357 184.047,331.857 180.5,319.5C 180.043,318.702 179.376,318.369 178.5,318.5 Z M 194.5,318.5 C 196.518,328.424 198.851,338.258 201.5,348C 206.69,345.991 211.856,343.491 217,340.5C 217.667,339.833 217.667,339.167 217,338.5C 210.095,330.996 202.595,324.33 194.5,318.5 Z M 269.5,318.5 C 262.827,325.839 255.827,332.839 248.5,339.5C 253.266,342.724 258.266,345.724 263.5,348.5C 264.086,348.291 264.586,347.957 265,347.5C 267.23,338.515 269.397,329.515 271.5,320.5C 271.253,319.287 270.586,318.62 269.5,318.5 Z M 220.5,361.5 C 217.07,366.647 218.403,369.147 224.5,369C 227.821,364.164 226.488,361.664 220.5,361.5 Z M 242.5,361.5 C 240.292,362.918 239.458,364.918 240,367.5C 243.589,370.395 246.422,369.729 248.5,365.5C 247.272,362.929 245.272,361.595 242.5,361.5 Z M 184.5,374.5 C 176.048,377.621 167.381,380.455 158.5,383C 158.043,383.414 157.709,383.914 157.5,384.5C 167.26,388.309 177.26,391.309 187.5,393.5C 187.666,387.824 187.499,382.157 187,376.5C 186.292,375.619 185.458,374.953 184.5,374.5 Z M 280.5,374.5 C 279.542,380.744 279.209,387.077 279.5,393.5C 289.751,391.027 299.751,387.86 309.5,384C 299.842,380.725 290.175,377.558 280.5,374.5 Z M 209.5,380.5 C 206.479,385.29 207.812,387.79 213.5,388C 216.821,383.164 215.488,380.664 209.5,380.5 Z M 252.5,380.5 C 249.07,385.647 250.403,388.147 256.5,388C 260.037,382.814 258.704,380.314 252.5,380.5 Z M 148.5,396.5 C 152.103,418.374 162.437,436.374 179.5,450.5C 181.117,447.72 182.284,444.72 183,441.5C 185.658,430.886 187.658,420.22 189,409.5C 175.792,404.322 162.292,399.988 148.5,396.5 Z M 312.5,397.5 C 302.644,400.728 292.644,403.895 282.5,407C 279.885,407.795 277.885,409.295 276.5,411.5C 279.067,424.771 282.401,437.771 286.5,450.5C 303.782,436.942 314.115,419.276 317.5,397.5C 315.833,397.5 314.167,397.5 312.5,397.5 Z M 221.5,398.5 C 217.374,401.738 217.707,404.738 222.5,407.5C 227.934,403.812 227.6,400.812 221.5,398.5 Z M 242.5,398.5 C 241.315,399.857 240.315,401.357 239.5,403C 240.958,407.493 243.458,408.327 247,405.5C 248.512,401.202 247.012,398.869 242.5,398.5 Z M 195.5,449.5 C 203.265,443.239 210.598,436.406 217.5,429C 212.5,425.833 207.5,422.667 202.5,419.5C 199.396,428.841 196.729,438.341 194.5,448C 195.056,448.383 195.389,448.883 195.5,449.5 Z M 262.5,419.5 C 257.863,422.824 253.196,426.157 248.5,429.5C 255.516,436.35 262.683,443.017 270,449.5C 270.692,448.975 271.192,448.308 271.5,447.5C 269.293,438.464 266.96,429.464 264.5,420.5C 264.043,419.702 263.376,419.369 262.5,419.5 Z M 232.5,434.5 C 222.865,443.967 213.031,453.3 203,462.5C 202.312,463.332 202.479,463.998 203.5,464.5C 223.17,471.136 242.837,471.136 262.5,464.5C 263.833,463.5 263.833,462.5 262.5,461.5C 253.057,451.715 243.057,442.715 232.5,434.5 Z"/></g>
<g><path style="opacity:1" fill="#141213" d="M 232.5,254.5 C 234.068,256.931 235.568,256.931 237,254.5C 239.543,254.635 242.21,255.302 245,256.5C 248.473,256.022 252.139,256.022 256,256.5C 259.037,257.709 262.204,258.543 265.5,259C 269.263,260.985 273.596,262.319 278.5,263C 288.439,267.883 297.939,272.716 307,277.5C 314.134,282.966 320.967,288.8 327.5,295C 327.167,295.333 326.833,295.667 326.5,296C 328.329,296.273 329.829,297.107 331,298.5C 331.561,300.725 332.561,302.725 334,304.5C 338.919,308.303 342.085,312.803 343.5,318C 352.256,331.716 357.589,345.716 359.5,360C 360.287,363.718 361.287,367.384 362.5,371C 361.904,379.228 361.904,387.228 362.5,395C 361.73,397.607 361.063,400.273 360.5,403C 362.141,404.646 361.807,405.646 359.5,406C 359.65,409.367 359.65,412.7 359.5,416C 357.875,416.853 357.542,417.853 358.5,419C 356.983,421.204 355.65,423.538 354.5,426C 354.833,426.333 355.167,426.667 355.5,427C 354.72,429.698 353.387,432.031 351.5,434C 352.299,435.749 351.632,437.082 349.5,438C 351.308,440.702 350.308,442.702 346.5,444C 346.833,444.333 347.167,444.667 347.5,445C 333.497,469.791 313.664,488.624 288,501.5C 286.434,500.939 285.101,501.606 284,503.5C 282.127,502.911 280.46,503.578 279,505.5C 276.246,504.878 273.913,505.878 272,508.5C 271,508.167 270,507.833 269,507.5C 268.667,508.167 268.333,508.833 268,509.5C 266.333,509.5 264.667,509.5 263,509.5C 262.333,510.167 261.667,510.833 261,511.5C 257.527,511.022 253.861,511.022 250,511.5C 249.667,512.167 249.333,512.833 249,513.5C 246.368,513.707 244.035,513.374 242,512.5C 241.333,515.167 240.667,515.167 240,512.5C 238.434,511.939 237.101,512.606 236,514.5C 234.691,512.109 233.691,512.109 233,514.5C 232.309,512.109 231.309,512.109 230,514.5C 228.691,512.109 227.691,512.109 227,514.5C 226.667,513.833 226.333,513.167 226,512.5C 225.333,513.833 224.667,513.833 224,512.5C 223.333,515.167 222.667,515.167 222,512.5C 220.417,512.493 218.751,512.826 217,513.5C 215.604,511.473 213.938,511.14 212,512.5C 211.333,511.833 210.667,511.167 210,510.5C 208.732,510.616 207.398,510.949 206,511.5C 205.333,510.833 204.667,510.167 204,509.5C 201.118,510.397 198.118,510.397 195,509.5C 191.512,505.888 187.845,504.221 184,504.5C 180.122,501.818 175.955,499.651 171.5,498C 172.34,496.334 171.84,496.167 170,497.5C 166.764,494.129 162.931,491.629 158.5,490C 157.638,487.266 156.805,487.099 156,489.5C 153.264,487.481 151.597,485.148 151,482.5C 150.667,482.833 150.333,483.167 150,483.5C 148.74,480.572 146.573,478.739 143.5,478C 143.833,477.667 144.167,477.333 144.5,477C 142,474.5 139.5,472 137,469.5C 136.667,469.833 136.333,470.167 136,470.5C 134.864,467.08 133.53,464.413 132,462.5C 131.086,463.654 130.253,463.487 129.5,462C 129.833,461.667 130.167,461.333 130.5,461C 129.5,460.667 128.5,460.333 127.5,460C 127.833,459.667 128.167,459.333 128.5,459C 127.584,458.626 126.75,458.126 126,457.5C 125.051,454.66 123.551,452.16 121.5,450C 121.833,449.667 122.167,449.333 122.5,449C 120.321,448.558 119.655,447.558 120.5,446C 119.672,445.085 118.672,444.419 117.5,444C 117.833,443.667 118.167,443.333 118.5,443C 117.5,442 116.5,441 115.5,440C 115.833,439.667 116.167,439.333 116.5,439C 115.35,436.538 114.017,434.204 112.5,432C 113.634,430.984 113.301,430.317 111.5,430C 111.5,428.333 111.5,426.667 111.5,425C 108.491,420.677 107.491,416.343 108.5,412C 107.056,410.237 106.056,408.237 105.5,406C 105.421,404.093 105.754,402.093 106.5,400C 105.364,398.47 104.364,397.137 103.5,396C 106.167,395.333 106.167,394.667 103.5,394C 104.01,391.076 104.01,388.41 103.5,386C 104.167,385 104.833,384 105.5,383C 104.22,376.419 104.22,369.419 105.5,362C 106.056,359.763 107.056,357.763 108.5,356C 108.043,355.586 107.709,355.086 107.5,354.5C 111.907,337.391 119.074,321.725 129,307.5C 139.506,293.328 152.506,281.995 168,273.5C 171.411,271.553 175.078,269.219 179,266.5C 189.598,262.918 200.598,259.585 212,256.5C 218.434,255.634 224.767,255.634 231,256.5C 231.717,255.956 232.217,255.289 232.5,254.5 Z M 224.5,278.5 C 224.833,279.167 225.167,279.833 225.5,280.5C 175.976,287.526 144.809,315.193 132,363.5C 124.968,408.58 139.802,444.413 176.5,471C 194.366,481.565 213.699,487.399 234.5,488.5C 234.5,489.167 234.5,489.833 234.5,490.5C 192.235,490.029 160.402,471.696 139,435.5C 115.526,384.792 124.026,340.292 164.5,302C 181.905,287.586 201.905,279.753 224.5,278.5 Z M 244.5,288.5 C 211.203,288.198 183.37,300.198 161,324.5C 137.732,355.645 133.398,389.312 148,425.5C 151.558,433.851 156.058,441.518 161.5,448.5C 155.859,444.277 151.359,438.944 148,432.5C 126.822,391.975 130.488,353.975 159,318.5C 182.346,293 210.846,283 244.5,288.5 Z M 277.5,287.5 C 285.548,290.359 292.881,294.525 299.5,300C 341.506,337.865 351.006,382.698 328,434.5C 310.608,464.725 284.774,483.059 250.5,489.5C 249.167,489.5 248.5,488.833 248.5,487.5C 295.037,477.129 323.871,448.796 335,402.5C 340.526,358.745 325.692,323.911 290.5,298C 286.606,295.554 282.606,293.388 278.5,291.5C 277.766,290.292 277.433,288.959 277.5,287.5 Z M 224.5,298.5 C 218.581,299.79 212.581,301.29 206.5,303C 204.714,303.196 203.381,304.029 202.5,305.5C 212.489,315.322 222.656,324.988 233,334.5C 243.344,324.988 253.511,315.322 263.5,305.5C 263.291,304.914 262.957,304.414 262.5,304C 250.175,299.876 237.508,298.042 224.5,298.5 Z M 285.5,317.5 C 282.019,331.417 279.185,345.417 277,359.5C 290.23,364.41 303.73,368.41 317.5,371.5C 313.982,349.11 303.315,331.11 285.5,317.5 Z M 178.5,318.5 C 162.066,332.352 152.066,350.018 148.5,371.5C 162.124,368.515 175.457,364.515 188.5,359.5C 188.833,358.667 189.167,357.833 189.5,357C 187.047,344.357 184.047,331.857 180.5,319.5C 180.043,318.702 179.376,318.369 178.5,318.5 Z M 194.5,318.5 C 196.518,328.424 198.851,338.258 201.5,348C 206.69,345.991 211.856,343.491 217,340.5C 217.667,339.833 217.667,339.167 217,338.5C 210.095,330.996 202.595,324.33 194.5,318.5 Z M 269.5,318.5 C 262.827,325.839 255.827,332.839 248.5,339.5C 253.266,342.724 258.266,345.724 263.5,348.5C 264.086,348.291 264.586,347.957 265,347.5C 267.23,338.515 269.397,329.515 271.5,320.5C 271.253,319.287 270.586,318.62 269.5,318.5 Z M 220.5,361.5 C 217.07,366.647 218.403,369.147 224.5,369C 227.821,364.164 226.488,361.664 220.5,361.5 Z M 242.5,361.5 C 240.292,362.918 239.458,364.918 240,367.5C 243.589,370.395 246.422,369.729 248.5,365.5C 247.272,362.929 245.272,361.595 242.5,361.5 Z M 184.5,374.5 C 176.048,377.621 167.381,380.455 158.5,383C 158.043,383.414 157.709,383.914 157.5,384.5C 167.26,388.309 177.26,391.309 187.5,393.5C 187.666,387.824 187.499,382.157 187,376.5C 186.292,375.619 185.458,374.953 184.5,374.5 Z M 280.5,374.5 C 279.542,380.744 279.209,387.077 279.5,393.5C 289.751,391.027 299.751,387.86 309.5,384C 299.842,380.725 290.175,377.558 280.5,374.5 Z M 209.5,380.5 C 206.479,385.29 207.812,387.79 213.5,388C 216.821,383.164 215.488,380.664 209.5,380.5 Z M 252.5,380.5 C 249.07,385.647 250.403,388.147 256.5,388C 260.037,382.814 258.704,380.314 252.5,380.5 Z M 148.5,396.5 C 152.103,418.374 162.437,436.374 179.5,450.5C 181.117,447.72 182.284,444.72 183,441.5C 185.658,430.886 187.658,420.22 189,409.5C 175.792,404.322 162.292,399.988 148.5,396.5 Z M 312.5,397.5 C 302.644,400.728 292.644,403.895 282.5,407C 279.885,407.795 277.885,409.295 276.5,411.5C 279.067,424.771 282.401,437.771 286.5,450.5C 303.782,436.942 314.115,419.276 317.5,397.5C 315.833,397.5 314.167,397.5 312.5,397.5 Z M 221.5,398.5 C 217.374,401.738 217.707,404.738 222.5,407.5C 227.934,403.812 227.6,400.812 221.5,398.5 Z M 242.5,398.5 C 241.315,399.857 240.315,401.357 239.5,403C 240.958,407.493 243.458,408.327 247,405.5C 248.512,401.202 247.012,398.869 242.5,398.5 Z M 195.5,449.5 C 203.265,443.239 210.598,436.406 217.5,429C 212.5,425.833 207.5,422.667 202.5,419.5C 199.396,428.841 196.729,438.341 194.5,448C 195.056,448.383 195.389,448.883 195.5,449.5 Z M 262.5,419.5 C 257.863,422.824 253.196,426.157 248.5,429.5C 255.516,436.35 262.683,443.017 270,449.5C 270.692,448.975 271.192,448.308 271.5,447.5C 269.293,438.464 266.96,429.464 264.5,420.5C 264.043,419.702 263.376,419.369 262.5,419.5 Z M 232.5,434.5 C 222.865,443.967 213.031,453.3 203,462.5C 202.312,463.332 202.479,463.998 203.5,464.5C 223.17,471.136 242.837,471.136 262.5,464.5C 263.833,463.5 263.833,462.5 262.5,461.5C 253.057,451.715 243.057,442.715 232.5,434.5 Z"/></g>
<g><path style="opacity:1" fill="#0c0b0b" d="M 223.5,259.5 C 229.182,259.618 234.848,259.618 240.5,259.5C 241.478,259.977 242.311,260.643 243,261.5C 246.25,260.788 249.583,260.455 253,260.5C 255.237,261.056 257.237,262.056 259,263.5C 261.924,264.01 264.59,264.01 267,263.5C 268.816,265.441 270.816,266.108 273,265.5C 276.088,267.571 279.421,269.238 283,270.5C 283.333,270.167 283.667,269.833 284,269.5C 285.655,269.802 286.988,271.136 288,273.5C 291.075,273.368 293.742,274.701 296,277.5C 296.333,277.167 296.667,276.833 297,276.5C 297.442,278.679 298.442,279.345 300,278.5C 308.108,284.474 315.941,290.807 323.5,297.5C 324.301,300.133 325.967,301.967 328.5,303C 328.167,303.333 327.833,303.667 327.5,304C 330.299,304.439 331.299,305.772 330.5,308C 332.817,309.32 334.817,310.986 336.5,313C 335.833,313.333 335.167,313.667 334.5,314C 336.044,314.29 337.377,314.956 338.5,316C 341.746,324.014 345.579,332.18 350,340.5C 352.32,347.488 354.487,354.988 356.5,363C 356.507,364.583 356.174,366.249 355.5,368C 356.167,368.333 356.833,368.667 357.5,369C 357.951,379.4 357.951,390.067 357.5,401C 356.833,401.333 356.167,401.667 355.5,402C 356.174,403.751 356.507,405.417 356.5,407C 355.833,407.333 355.167,407.667 354.5,408C 354.305,410.96 354.305,413.96 354.5,417C 352.699,417.317 352.366,417.984 353.5,419C 351.819,420.945 351.152,422.945 351.5,425C 349.819,426.945 349.152,428.945 349.5,431C 348.5,432 347.5,433 346.5,434C 346.112,435.525 346.112,437.192 346.5,439C 343.58,441.034 341.747,443.868 341,447.5C 338.748,450.297 336.581,453.131 334.5,456C 334.833,456.333 335.167,456.667 335.5,457C 326.002,467.164 316.169,476.998 306,486.5C 304.16,485.167 303.66,485.334 304.5,487C 302.479,487.513 300.979,488.68 300,490.5C 298.16,489.167 297.66,489.334 298.5,491C 293.961,492.213 289.794,494.713 286,498.5C 283.546,496.987 281.879,497.654 281,500.5C 280.333,497.833 279.667,497.833 279,500.5C 278.667,500.167 278.333,499.833 278,499.5C 276.333,500.5 274.667,501.5 273,502.5C 271.434,501.939 270.101,502.606 269,504.5C 268.667,504.167 268.333,503.833 268,503.5C 266.333,504.5 264.667,505.5 263,506.5C 261.413,505.273 260.079,505.606 259,507.5C 257.667,504.833 256.333,504.833 255,507.5C 251.95,508.276 248.616,508.276 245,507.5C 244.333,508.167 243.667,508.833 243,509.5C 236.333,509.5 229.667,509.5 223,509.5C 222.333,508.833 221.667,508.167 221,507.5C 217.417,508.331 213.75,508.331 210,507.5C 208.47,506.364 207.137,505.364 206,504.5C 205.333,507.167 204.667,507.167 204,504.5C 201.246,506.074 198.913,505.408 197,502.5C 195.853,503.458 194.853,503.125 194,501.5C 192.667,501.5 191.333,501.5 190,501.5C 189.667,500.833 189.333,500.167 189,499.5C 187.333,499.5 185.667,499.5 184,499.5C 180.995,498.57 178.328,496.57 176,493.5C 174.667,493.5 173.333,493.5 172,493.5C 169,491.167 166,488.833 163,486.5C 162.667,486.833 162.333,487.167 162,487.5C 158.318,485.085 154.984,481.751 152,477.5C 150.16,478.833 149.66,478.666 150.5,477C 149.5,476.667 148.5,476.333 147.5,476C 147.833,475.667 148.167,475.333 148.5,475C 146.228,472.973 144.061,470.806 142,468.5C 141.086,469.654 140.253,469.487 139.5,468C 140.299,465.772 139.299,464.439 136.5,464C 136.833,463.667 137.167,463.333 137.5,463C 135.158,460.624 132.825,458.291 130.5,456C 130.833,455.667 131.167,455.333 131.5,455C 128.456,454.641 128.122,453.974 130.5,453C 129.5,452.667 128.5,452.333 127.5,452C 128.634,450.984 128.301,450.317 126.5,450C 127.634,448.984 127.301,448.317 125.5,448C 126.299,445.772 125.299,444.439 122.5,444C 122.957,443.586 123.291,443.086 123.5,442.5C 120.836,439.622 119.502,436.455 119.5,433C 117.699,432.683 117.366,432.016 118.5,431C 116.65,428.117 114.984,424.617 113.5,420.5C 113.709,419.914 114.043,419.414 114.5,419C 112.996,417.663 111.996,415.996 111.5,414C 111.833,413.667 112.167,413.333 112.5,413C 111.048,411.042 110.715,409.042 111.5,407C 110.287,403.384 109.287,399.718 108.5,396C 109.634,394.984 109.301,394.317 107.5,394C 108.167,393.667 108.833,393.333 109.5,393C 108.603,385.602 108.27,378.269 108.5,371C 109.24,369.215 109.907,367.382 110.5,365.5C 110.434,362.966 110.434,360.466 110.5,358C 112.653,355.01 113.986,352.01 114.5,349C 113.366,347.984 113.699,347.317 115.5,347C 115.167,346.667 114.833,346.333 114.5,346C 116.414,342.925 117.748,339.925 118.5,337C 117.366,335.984 117.699,335.317 119.5,335C 119.167,334.667 118.833,334.333 118.5,334C 119.81,331.384 121.476,329.051 123.5,327C 122.209,324.91 122.876,323.576 125.5,323C 125.5,322 125.5,321 125.5,320C 128.167,317 130.833,314 133.5,311C 133.5,310 133.5,309 133.5,308C 135.167,307 136.833,306 138.5,305C 137.833,304.667 137.167,304.333 136.5,304C 143.946,297.505 150.779,291.005 157,284.5C 157.333,284.833 157.667,285.167 158,285.5C 162.017,280.911 166.35,278.244 171,277.5C 172.709,275.825 174.376,274.158 176,272.5C 177.333,272.5 178.667,272.5 180,272.5C 181.243,270.167 182.909,269.5 185,270.5C 186.913,267.878 189.246,266.878 192,267.5C 192.317,265.699 192.984,265.366 194,266.5C 194.333,265.833 194.667,265.167 195,264.5C 196.779,265.479 198.445,265.146 200,263.5C 200.333,263.833 200.667,264.167 201,264.5C 204.627,262.369 208.627,261.036 213,260.5C 216.231,261.313 219.231,261.646 222,261.5C 222.717,260.956 223.217,260.289 223.5,259.5 Z M 224.5,278.5 C 224.833,279.167 225.167,279.833 225.5,280.5C 175.976,287.526 144.809,315.193 132,363.5C 124.968,408.58 139.802,444.413 176.5,471C 194.366,481.565 213.699,487.399 234.5,488.5C 234.5,489.167 234.5,489.833 234.5,490.5C 192.235,490.029 160.402,471.696 139,435.5C 115.526,384.792 124.026,340.292 164.5,302C 181.905,287.586 201.905,279.753 224.5,278.5 Z M 244.5,288.5 C 211.203,288.198 183.37,300.198 161,324.5C 137.732,355.645 133.398,389.312 148,425.5C 151.558,433.851 156.058,441.518 161.5,448.5C 155.859,444.277 151.359,438.944 148,432.5C 126.822,391.975 130.488,353.975 159,318.5C 182.346,293 210.846,283 244.5,288.5 Z M 277.5,287.5 C 285.548,290.359 292.881,294.525 299.5,300C 341.506,337.865 351.006,382.698 328,434.5C 310.608,464.725 284.774,483.059 250.5,489.5C 249.167,489.5 248.5,488.833 248.5,487.5C 295.037,477.129 323.871,448.796 335,402.5C 340.526,358.745 325.692,323.911 290.5,298C 286.606,295.554 282.606,293.388 278.5,291.5C 277.766,290.292 277.433,288.959 277.5,287.5 Z M 224.5,298.5 C 218.581,299.79 212.581,301.29 206.5,303C 204.714,303.196 203.381,304.029 202.5,305.5C 212.489,315.322 222.656,324.988 233,334.5C 243.344,324.988 253.511,315.322 263.5,305.5C 263.291,304.914 262.957,304.414 262.5,304C 250.175,299.876 237.508,298.042 224.5,298.5 Z M 285.5,317.5 C 282.019,331.417 279.185,345.417 277,359.5C 290.23,364.41 303.73,368.41 317.5,371.5C 313.982,349.11 303.315,331.11 285.5,317.5 Z M 178.5,318.5 C 162.066,332.352 152.066,350.018 148.5,371.5C 162.124,368.515 175.457,364.515 188.5,359.5C 188.833,358.667 189.167,357.833 189.5,357C 187.047,344.357 184.047,331.857 180.5,319.5C 180.043,318.702 179.376,318.369 178.5,318.5 Z M 194.5,318.5 C 196.518,328.424 198.851,338.258 201.5,348C 206.69,345.991 211.856,343.491 217,340.5C 217.667,339.833 217.667,339.167 217,338.5C 210.095,330.996 202.595,324.33 194.5,318.5 Z M 269.5,318.5 C 262.827,325.839 255.827,332.839 248.5,339.5C 253.266,342.724 258.266,345.724 263.5,348.5C 264.086,348.291 264.586,347.957 265,347.5C 267.23,338.515 269.397,329.515 271.5,320.5C 271.253,319.287 270.586,318.62 269.5,318.5 Z M 220.5,361.5 C 217.07,366.647 218.403,369.147 224.5,369C 227.821,364.164 226.488,361.664 220.5,361.5 Z M 242.5,361.5 C 240.292,362.918 239.458,364.918 240,367.5C 243.589,370.395 246.422,369.729 248.5,365.5C 247.272,362.929 245.272,361.595 242.5,361.5 Z M 184.5,374.5 C 176.048,377.621 167.381,380.455 158.5,383C 158.043,383.414 157.709,383.914 157.5,384.5C 167.26,388.309 177.26,391.309 187.5,393.5C 187.666,387.824 187.499,382.157 187,376.5C 186.292,375.619 185.458,374.953 184.5,374.5 Z M 280.5,374.5 C 279.542,380.744 279.209,387.077 279.5,393.5C 289.751,391.027 299.751,387.86 309.5,384C 299.842,380.725 290.175,377.558 280.5,374.5 Z M 209.5,380.5 C 206.479,385.29 207.812,387.79 213.5,388C 216.821,383.164 215.488,380.664 209.5,380.5 Z M 252.5,380.5 C 249.07,385.647 250.403,388.147 256.5,388C 260.037,382.814 258.704,380.314 252.5,380.5 Z M 148.5,396.5 C 152.103,418.374 162.437,436.374 179.5,450.5C 181.117,447.72 182.284,444.72 183,441.5C 185.658,430.886 187.658,420.22 189,409.5C 175.792,404.322 162.292,399.988 148.5,396.5 Z M 312.5,397.5 C 302.644,400.728 292.644,403.895 282.5,407C 279.885,407.795 277.885,409.295 276.5,411.5C 279.067,424.771 282.401,437.771 286.5,450.5C 303.782,436.942 314.115,419.276 317.5,397.5C 315.833,397.5 314.167,397.5 312.5,397.5 Z M 221.5,398.5 C 217.374,401.738 217.707,404.738 222.5,407.5C 227.934,403.812 227.6,400.812 221.5,398.5 Z M 242.5,398.5 C 241.315,399.857 240.315,401.357 239.5,403C 240.958,407.493 243.458,408.327 247,405.5C 248.512,401.202 247.012,398.869 242.5,398.5 Z M 195.5,449.5 C 203.265,443.239 210.598,436.406 217.5,429C 212.5,425.833 207.5,422.667 202.5,419.5C 199.396,428.841 196.729,438.341 194.5,448C 195.056,448.383 195.389,448.883 195.5,449.5 Z M 262.5,419.5 C 257.863,422.824 253.196,426.157 248.5,429.5C 255.516,436.35 262.683,443.017 270,449.5C 270.692,448.975 271.192,448.308 271.5,447.5C 269.293,438.464 266.96,429.464 264.5,420.5C 264.043,419.702 263.376,419.369 262.5,419.5 Z M 232.5,434.5 C 222.865,443.967 213.031,453.3 203,462.5C 202.312,463.332 202.479,463.998 203.5,464.5C 223.17,471.136 242.837,471.136 262.5,464.5C 263.833,463.5 263.833,462.5 262.5,461.5C 253.057,451.715 243.057,442.715 232.5,434.5 Z"/></g>
<g><path style="opacity:0.09" fill="#010201" d="M 397.5,259.5 C 398.833,260.167 398.833,260.167 397.5,259.5 Z"/></g>
<g><path style="opacity:0.928" fill="#040303" d="M 225.5,263.5 C 230.189,264.123 234.689,264.123 239,263.5C 243.259,265.13 247.259,265.463 251,264.5C 251.333,265.167 251.667,265.833 252,266.5C 253.751,265.826 255.417,265.493 257,265.5C 303.843,277.657 334.843,307.324 350,354.5C 360.905,415.34 339.905,461.34 287,492.5C 286.667,492.167 286.333,491.833 286,491.5C 279.873,494.879 273.539,497.879 267,500.5C 266.667,500.167 266.333,499.833 266,499.5C 263.667,500.5 261.333,501.5 259,502.5C 256.564,501.903 253.897,501.903 251,502.5C 250,503.167 249,503.833 248,504.5C 240.549,504.278 232.549,504.278 224,504.5C 218.68,503.648 213.68,502.648 209,501.5C 163.273,492.208 132.607,463.875 117,416.5C 106.981,375.219 115.647,337.885 143,304.5C 166.272,280.443 193.772,266.776 225.5,263.5 Z M 224.5,278.5 C 224.833,279.167 225.167,279.833 225.5,280.5C 175.976,287.526 144.809,315.193 132,363.5C 124.968,408.58 139.802,444.413 176.5,471C 194.366,481.565 213.699,487.399 234.5,488.5C 234.5,489.167 234.5,489.833 234.5,490.5C 192.235,490.029 160.402,471.696 139,435.5C 115.526,384.792 124.026,340.292 164.5,302C 181.905,287.586 201.905,279.753 224.5,278.5 Z M 244.5,288.5 C 211.203,288.198 183.37,300.198 161,324.5C 137.732,355.645 133.398,389.312 148,425.5C 151.558,433.851 156.058,441.518 161.5,448.5C 155.859,444.277 151.359,438.944 148,432.5C 126.822,391.975 130.488,353.975 159,318.5C 182.346,293 210.846,283 244.5,288.5 Z M 277.5,287.5 C 285.548,290.359 292.881,294.525 299.5,300C 341.506,337.865 351.006,382.698 328,434.5C 310.608,464.725 284.774,483.059 250.5,489.5C 249.167,489.5 248.5,488.833 248.5,487.5C 295.037,477.129 323.871,448.796 335,402.5C 340.526,358.745 325.692,323.911 290.5,298C 286.606,295.554 282.606,293.388 278.5,291.5C 277.766,290.292 277.433,288.959 277.5,287.5 Z M 224.5,298.5 C 218.581,299.79 212.581,301.29 206.5,303C 204.714,303.196 203.381,304.029 202.5,305.5C 212.489,315.322 222.656,324.988 233,334.5C 243.344,324.988 253.511,315.322 263.5,305.5C 263.291,304.914 262.957,304.414 262.5,304C 250.175,299.876 237.508,298.042 224.5,298.5 Z M 285.5,317.5 C 282.019,331.417 279.185,345.417 277,359.5C 290.23,364.41 303.73,368.41 317.5,371.5C 313.982,349.11 303.315,331.11 285.5,317.5 Z M 178.5,318.5 C 162.066,332.352 152.066,350.018 148.5,371.5C 162.124,368.515 175.457,364.515 188.5,359.5C 188.833,358.667 189.167,357.833 189.5,357C 187.047,344.357 184.047,331.857 180.5,319.5C 180.043,318.702 179.376,318.369 178.5,318.5 Z M 194.5,318.5 C 196.518,328.424 198.851,338.258 201.5,348C 206.69,345.991 211.856,343.491 217,340.5C 217.667,339.833 217.667,339.167 217,338.5C 210.095,330.996 202.595,324.33 194.5,318.5 Z M 269.5,318.5 C 262.827,325.839 255.827,332.839 248.5,339.5C 253.266,342.724 258.266,345.724 263.5,348.5C 264.086,348.291 264.586,347.957 265,347.5C 267.23,338.515 269.397,329.515 271.5,320.5C 271.253,319.287 270.586,318.62 269.5,318.5 Z M 220.5,361.5 C 217.07,366.647 218.403,369.147 224.5,369C 227.821,364.164 226.488,361.664 220.5,361.5 Z M 242.5,361.5 C 240.292,362.918 239.458,364.918 240,367.5C 243.589,370.395 246.422,369.729 248.5,365.5C 247.272,362.929 245.272,361.595 242.5,361.5 Z M 184.5,374.5 C 176.048,377.621 167.381,380.455 158.5,383C 158.043,383.414 157.709,383.914 157.5,384.5C 167.26,388.309 177.26,391.309 187.5,393.5C 187.666,387.824 187.499,382.157 187,376.5C 186.292,375.619 185.458,374.953 184.5,374.5 Z M 280.5,374.5 C 279.542,380.744 279.209,387.077 279.5,393.5C 289.751,391.027 299.751,387.86 309.5,384C 299.842,380.725 290.175,377.558 280.5,374.5 Z M 209.5,380.5 C 206.479,385.29 207.812,387.79 213.5,388C 216.821,383.164 215.488,380.664 209.5,380.5 Z M 252.5,380.5 C 249.07,385.647 250.403,388.147 256.5,388C 260.037,382.814 258.704,380.314 252.5,380.5 Z M 148.5,396.5 C 152.103,418.374 162.437,436.374 179.5,450.5C 181.117,447.72 182.284,444.72 183,441.5C 185.658,430.886 187.658,420.22 189,409.5C 175.792,404.322 162.292,399.988 148.5,396.5 Z M 312.5,397.5 C 302.644,400.728 292.644,403.895 282.5,407C 279.885,407.795 277.885,409.295 276.5,411.5C 279.067,424.771 282.401,437.771 286.5,450.5C 303.782,436.942 314.115,419.276 317.5,397.5C 315.833,397.5 314.167,397.5 312.5,397.5 Z M 221.5,398.5 C 217.374,401.738 217.707,404.738 222.5,407.5C 227.934,403.812 227.6,400.812 221.5,398.5 Z M 242.5,398.5 C 241.315,399.857 240.315,401.357 239.5,403C 240.958,407.493 243.458,408.327 247,405.5C 248.512,401.202 247.012,398.869 242.5,398.5 Z M 195.5,449.5 C 203.265,443.239 210.598,436.406 217.5,429C 212.5,425.833 207.5,422.667 202.5,419.5C 199.396,428.841 196.729,438.341 194.5,448C 195.056,448.383 195.389,448.883 195.5,449.5 Z M 262.5,419.5 C 257.863,422.824 253.196,426.157 248.5,429.5C 255.516,436.35 262.683,443.017 270,449.5C 270.692,448.975 271.192,448.308 271.5,447.5C 269.293,438.464 266.96,429.464 264.5,420.5C 264.043,419.702 263.376,419.369 262.5,419.5 Z M 232.5,434.5 C 222.865,443.967 213.031,453.3 203,462.5C 202.312,463.332 202.479,463.998 203.5,464.5C 223.17,471.136 242.837,471.136 262.5,464.5C 263.833,463.5 263.833,462.5 262.5,461.5C 253.057,451.715 243.057,442.715 232.5,434.5 Z"/></g>
<g><path style="opacity:1" fill="#dedede" d="M 277.5,287.5 C 277.433,288.959 277.766,290.292 278.5,291.5C 266.652,286.397 254.318,283.063 241.5,281.5C 235.78,281.016 230.114,280.016 224.5,278.5C 224.389,277.883 224.056,277.383 223.5,277C 238.154,275.855 252.488,277.522 266.5,282C 270.538,283.352 274.205,285.186 277.5,287.5 Z"/></g>
<g><path style="opacity:0.9" fill="#010101" d="M 225.5,280.5 C 230.64,281.488 235.974,281.821 241.5,281.5C 254.318,283.063 266.652,286.397 278.5,291.5C 282.606,293.388 286.606,295.554 290.5,298C 325.692,323.911 340.526,358.745 335,402.5C 323.871,448.796 295.037,477.129 248.5,487.5C 243.787,486.503 239.12,486.837 234.5,488.5C 213.699,487.399 194.366,481.565 176.5,471C 139.802,444.413 124.968,408.58 132,363.5C 144.809,315.193 175.976,287.526 225.5,280.5 Z M 244.5,288.5 C 211.203,288.198 183.37,300.198 161,324.5C 137.732,355.645 133.398,389.312 148,425.5C 151.558,433.851 156.058,441.518 161.5,448.5C 155.859,444.277 151.359,438.944 148,432.5C 126.822,391.975 130.488,353.975 159,318.5C 182.346,293 210.846,283 244.5,288.5 Z M 224.5,298.5 C 218.581,299.79 212.581,301.29 206.5,303C 204.714,303.196 203.381,304.029 202.5,305.5C 212.489,315.322 222.656,324.988 233,334.5C 243.344,324.988 253.511,315.322 263.5,305.5C 263.291,304.914 262.957,304.414 262.5,304C 250.175,299.876 237.508,298.042 224.5,298.5 Z M 285.5,317.5 C 282.019,331.417 279.185,345.417 277,359.5C 290.23,364.41 303.73,368.41 317.5,371.5C 313.982,349.11 303.315,331.11 285.5,317.5 Z M 178.5,318.5 C 162.066,332.352 152.066,350.018 148.5,371.5C 162.124,368.515 175.457,364.515 188.5,359.5C 188.833,358.667 189.167,357.833 189.5,357C 187.047,344.357 184.047,331.857 180.5,319.5C 180.043,318.702 179.376,318.369 178.5,318.5 Z M 194.5,318.5 C 196.518,328.424 198.851,338.258 201.5,348C 206.69,345.991 211.856,343.491 217,340.5C 217.667,339.833 217.667,339.167 217,338.5C 210.095,330.996 202.595,324.33 194.5,318.5 Z M 269.5,318.5 C 262.827,325.839 255.827,332.839 248.5,339.5C 253.266,342.724 258.266,345.724 263.5,348.5C 264.086,348.291 264.586,347.957 265,347.5C 267.23,338.515 269.397,329.515 271.5,320.5C 271.253,319.287 270.586,318.62 269.5,318.5 Z M 220.5,361.5 C 217.07,366.647 218.403,369.147 224.5,369C 227.821,364.164 226.488,361.664 220.5,361.5 Z M 242.5,361.5 C 240.292,362.918 239.458,364.918 240,367.5C 243.589,370.395 246.422,369.729 248.5,365.5C 247.272,362.929 245.272,361.595 242.5,361.5 Z M 184.5,374.5 C 176.048,377.621 167.381,380.455 158.5,383C 158.043,383.414 157.709,383.914 157.5,384.5C 167.26,388.309 177.26,391.309 187.5,393.5C 187.666,387.824 187.499,382.157 187,376.5C 186.292,375.619 185.458,374.953 184.5,374.5 Z M 280.5,374.5 C 279.542,380.744 279.209,387.077 279.5,393.5C 289.751,391.027 299.751,387.86 309.5,384C 299.842,380.725 290.175,377.558 280.5,374.5 Z M 209.5,380.5 C 206.479,385.29 207.812,387.79 213.5,388C 216.821,383.164 215.488,380.664 209.5,380.5 Z M 252.5,380.5 C 249.07,385.647 250.403,388.147 256.5,388C 260.037,382.814 258.704,380.314 252.5,380.5 Z M 148.5,396.5 C 152.103,418.374 162.437,436.374 179.5,450.5C 181.117,447.72 182.284,444.72 183,441.5C 185.658,430.886 187.658,420.22 189,409.5C 175.792,404.322 162.292,399.988 148.5,396.5 Z M 312.5,397.5 C 302.644,400.728 292.644,403.895 282.5,407C 279.885,407.795 277.885,409.295 276.5,411.5C 279.067,424.771 282.401,437.771 286.5,450.5C 303.782,436.942 314.115,419.276 317.5,397.5C 315.833,397.5 314.167,397.5 312.5,397.5 Z M 221.5,398.5 C 217.374,401.738 217.707,404.738 222.5,407.5C 227.934,403.812 227.6,400.812 221.5,398.5 Z M 242.5,398.5 C 241.315,399.857 240.315,401.357 239.5,403C 240.958,407.493 243.458,408.327 247,405.5C 248.512,401.202 247.012,398.869 242.5,398.5 Z M 195.5,449.5 C 203.265,443.239 210.598,436.406 217.5,429C 212.5,425.833 207.5,422.667 202.5,419.5C 199.396,428.841 196.729,438.341 194.5,448C 195.056,448.383 195.389,448.883 195.5,449.5 Z M 262.5,419.5 C 257.863,422.824 253.196,426.157 248.5,429.5C 255.516,436.35 262.683,443.017 270,449.5C 270.692,448.975 271.192,448.308 271.5,447.5C 269.293,438.464 266.96,429.464 264.5,420.5C 264.043,419.702 263.376,419.369 262.5,419.5 Z M 232.5,434.5 C 222.865,443.967 213.031,453.3 203,462.5C 202.312,463.332 202.479,463.998 203.5,464.5C 223.17,471.136 242.837,471.136 262.5,464.5C 263.833,463.5 263.833,462.5 262.5,461.5C 253.057,451.715 243.057,442.715 232.5,434.5 Z"/></g>
<g><path style="opacity:0.992" fill="#909090" d="M 224.5,278.5 C 230.114,280.016 235.78,281.016 241.5,281.5C 235.974,281.821 230.64,281.488 225.5,280.5C 225.167,279.833 224.833,279.167 224.5,278.5 Z"/></g>
<g><path style="opacity:1" fill="#d0d0d0" d="M 244.5,288.5 C 245.151,287.909 245.818,287.243 246.5,286.5C 260.502,289.774 273.502,295.274 285.5,303C 278.525,299.525 271.192,296.525 263.5,294C 256.157,292.662 248.824,291.329 241.5,290C 242.737,289.768 243.737,289.268 244.5,288.5 Z"/></g>
<g><path style="opacity:0.09" fill="#010201" d="M 665.5,296.5 C 666.833,297.167 666.833,297.167 665.5,296.5 Z"/></g>
<g><path style="opacity:0.09" fill="#010201" d="M 667.5,296.5 C 668.833,297.167 668.833,297.167 667.5,296.5 Z"/></g>
<g><path style="opacity:0.09" fill="#010201" d="M 602.5,318.5 C 608.877,319.152 615.544,319.652 622.5,320C 610.5,320.667 598.5,320.667 586.5,320C 592.016,319.827 597.349,319.327 602.5,318.5 Z"/></g>
<g><path style="opacity:0.09" fill="#010201" d="M 635.5,319.5 C 634.833,318.167 634.833,318.167 635.5,319.5 Z"/></g>
<g><path style="opacity:0.09" fill="#010201" d="M 566.5,319.5 C 567.833,320.167 567.833,320.167 566.5,319.5 Z"/></g>
<g><path style="opacity:0.09" fill="#010201" d="M 568.5,319.5 C 569.833,320.167 569.833,320.167 568.5,319.5 Z"/></g>
<g><path style="opacity:0.09" fill="#010201" d="M 570.5,319.5 C 571.833,320.167 571.833,320.167 570.5,319.5 Z"/></g>
<g><path style="opacity:0.09" fill="#010201" d="M 572.5,319.5 C 573.833,320.167 573.833,320.167 572.5,319.5 Z"/></g>
<g><path style="opacity:0.09" fill="#010201" d="M 574.5,319.5 C 575.833,320.167 575.833,320.167 574.5,319.5 Z"/></g>
<g><path style="opacity:0.09" fill="#010201" d="M 576.5,319.5 C 577.833,320.167 577.833,320.167 576.5,319.5 Z"/></g>
<g><path style="opacity:0.09" fill="#010201" d="M 580.5,320.5 C 581.946,319.387 583.613,319.22 585.5,320C 583.866,320.494 582.199,320.66 580.5,320.5 Z"/></g>
<g><path style="opacity:0.09" fill="#010201" d="M 623.5,320.5 C 624.251,319.427 625.251,319.26 626.5,320C 625.552,320.483 624.552,320.649 623.5,320.5 Z"/></g>
<g><path style="opacity:0.09" fill="#010201" d="M 627.5,319.5 C 628.833,320.167 628.833,320.167 627.5,319.5 Z"/></g>
<g><path style="opacity:0.09" fill="#010201" d="M 629.5,320.5 C 630.251,319.427 631.251,319.26 632.5,320C 631.552,320.483 630.552,320.649 629.5,320.5 Z"/></g>
<g><path style="opacity:0.09" fill="#010201" d="M 634.5,319.5 C 633.833,320.167 633.833,320.167 634.5,319.5 Z"/></g>
<g><path style="opacity:0.09" fill="#010201" d="M 635.5,319.5 C 636.239,319.369 636.906,319.536 637.5,320C 636.563,320.692 635.897,320.525 635.5,319.5 Z"/></g>
<g><path style="opacity:0.647" fill="#949494" d="M 83.5,355.5 C 85.256,356.552 85.9227,358.219 85.5,360.5C 84.5,360.5 83.5,360.5 82.5,360.5C 82.366,358.708 82.6993,357.042 83.5,355.5 Z"/></g>
<g><path style="opacity:0.09" fill="#010201" d="M 615.5,358.5 C 616.833,359.167 616.833,359.167 615.5,358.5 Z"/></g>
<g><path style="opacity:0.984" fill="#515151" d="M 345.5,390.5 C 345.802,387.941 345.468,385.607 344.5,383.5C 344.239,377.48 344.072,371.48 344,365.5C 345.878,373.927 346.378,382.26 345.5,390.5 Z"/></g>
<g><path style="opacity:0.09" fill="#010201" d="M 542.5,405.5 C 541.127,405.657 539.793,405.49 538.5,405C 540.066,404.235 541.399,404.402 542.5,405.5 Z"/></g>
<g><path style="opacity:0.09" fill="#010201" d="M 545.5,405.5 C 544.833,404.167 544.833,404.167 545.5,405.5 Z"/></g>
<g><path style="opacity:0.09" fill="#010201" d="M 546.5,404.5 C 547.833,405.167 547.833,405.167 546.5,404.5 Z"/></g>
<g><path style="opacity:0.09" fill="#010201" d="M 549.5,404.5 C 550.833,405.167 550.833,405.167 549.5,404.5 Z"/></g>
<g><path style="opacity:0.09" fill="#010201" d="M 542.5,405.5 C 543.833,406.167 543.833,406.167 542.5,405.5 Z"/></g>
<g><path style="opacity:0.09" fill="#010201" d="M 545.5,405.5 C 545.833,405.5 546.167,405.5 546.5,405.5C 546.315,406.17 545.981,406.17 545.5,405.5 Z"/></g>
<g><path style="opacity:0.98" fill="#9a9a9a" d="M 82.5,408.5 C 83.5,408.5 84.5,408.5 85.5,408.5C 85.9227,410.781 85.256,412.448 83.5,413.5C 83.3713,411.784 83.038,410.117 82.5,408.5 Z"/></g>
<g><path style="opacity:0.992" fill="#929292" d="M 344.5,383.5 C 345.468,385.607 345.802,387.941 345.5,390.5C 344.963,407.612 340.463,423.612 332,438.5C 331.346,439.696 330.846,439.696 330.5,438.5C 339.48,421.267 344.147,402.934 344.5,383.5 Z"/></g>
<g><path style="opacity:1" fill="#d6d6d6" d="M 89.5,436.5 C 89.5,436.167 89.5,435.833 89.5,435.5C 89.3691,434.624 89.7025,433.957 90.5,433.5C 93.4989,436.448 93.1655,437.448 89.5,436.5 Z"/></g>
<g><path style="opacity:0.984" fill="#6e6e6e" d="M 146.5,455.5 C 145.206,454.71 144.039,453.71 143,452.5C 141.066,449.966 139.732,447.299 139,444.5C 142.015,447.878 144.515,451.544 146.5,455.5 Z"/></g>
<g><path style="opacity:0.992" fill="#797979" d="M 195.5,449.5 C 195.539,450.756 195.039,451.756 194,452.5C 193.415,451.002 193.915,450.002 195.5,449.5 Z"/></g>
<g><path style="opacity:0.992" fill="#9c9c9c" d="M 163.5,452.5 C 163.735,451.903 164.235,451.57 165,451.5C 172.088,458.877 171.588,459.21 163.5,452.5 Z"/></g>
<g><path style="opacity:0.992" fill="#8c8c8c" d="M 146.5,455.5 C 151.833,460.167 156.833,465.167 161.5,470.5C 155.5,466.5 150.5,461.5 146.5,455.5 Z"/></g>
<g><path style="opacity:0.98" fill="#a5a5a5" d="M 322.5,450.5 C 323.043,450.56 323.376,450.893 323.5,451.5C 320.179,456.152 316.513,460.485 312.5,464.5C 311.479,463.998 311.312,463.332 312,462.5C 316.082,458.924 319.582,454.924 322.5,450.5 Z"/></g>
<g><path style="opacity:0.992" fill="#959595" d="M 161.5,470.5 C 165.707,472.435 169.373,475.102 172.5,478.5C 171.078,478.291 169.745,477.791 168.5,477C 165.712,475.281 163.379,473.115 161.5,470.5 Z"/></g>
<g><path style="opacity:0.98" fill="#929292" d="M 294.5,476.5 C 295.239,476.369 295.906,476.536 296.5,477C 294.088,480.033 291.088,481.7 287.5,482C 290.02,480.303 292.353,478.47 294.5,476.5 Z"/></g>
<g><path style="opacity:0.09" fill="#010201" d="M 573.5,483.5 C 574.833,484.167 574.833,484.167 573.5,483.5 Z"/></g>
<g><path style="opacity:0.992" fill="#a3a3a3" d="M 172.5,478.5 C 190.32,489.124 209.653,494.791 230.5,495.5C 228.052,496.473 225.385,496.806 222.5,496.5C 205.406,494.858 189.406,489.691 174.5,481C 173.619,480.292 172.953,479.458 172.5,478.5 Z"/></g>
<g><path style="opacity:0.992" fill="#9c9c9c" d="M 282.5,483.5 C 283.552,483.351 284.552,483.517 285.5,484C 283.835,485.84 281.835,486.507 279.5,486C 280.571,485.148 281.571,484.315 282.5,483.5 Z"/></g>
<g><path style="opacity:1" fill="#d7d7d7" d="M 248.5,487.5 C 248.5,488.833 249.167,489.5 250.5,489.5C 245.245,491.524 239.911,491.857 234.5,490.5C 234.5,489.833 234.5,489.167 234.5,488.5C 239.12,486.837 243.787,486.503 248.5,487.5 Z"/></g>
<g><path style="opacity:0.647" fill="#8b8b8b" d="M 273.5,487.5 C 278.505,487.443 278.672,488.11 274,489.5C 272.316,489.317 272.15,488.65 273.5,487.5 Z"/></g>
<g><path style="opacity:0.992" fill="#979797" d="M 257.5,494.5 C 256.791,493.596 255.791,493.263 254.5,493.5C 259.941,491.559 265.608,490.392 271.5,490C 267.136,492.343 262.47,493.843 257.5,494.5 Z"/></g>
<g><path style="opacity:0.98" fill="#cacaca" d="M 254.5,493.5 C 255.791,493.263 256.791,493.596 257.5,494.5C 253.21,495.425 248.876,496.091 244.5,496.5C 240.958,496.813 237.625,496.479 234.5,495.5C 241.214,495.27 247.88,494.603 254.5,493.5 Z"/></g>
<g><path style="opacity:0.992" fill="#767676" d="M 230.5,495.5 C 231.833,495.5 233.167,495.5 234.5,495.5C 237.625,496.479 240.958,496.813 244.5,496.5C 237.167,497.833 229.833,497.833 222.5,496.5C 225.385,496.806 228.052,496.473 230.5,495.5 Z"/></g>
<g><path style="opacity:0.09" fill="#010201" d="M 641.5,504.5 C 642.833,505.167 642.833,505.167 641.5,504.5 Z"/></g>
</svg>
